# heart2.glb optimized
v -0.174301 0.655468 0.065810
v -0.174301 0.655468 0.065810
v 0.041265 0.447355 0.084133
v -0.096766 0.569622 -0.156335
v 0.147221 0.968776 0.096296
v 0.100900 1.042495 -0.162374
v -0.031194 1.204350 0.018373
v -0.031194 1.204350 0.018373
v 0.432571 1.085495 0.137939
v 0.432571 1.085495 0.137939
v 0.446587 0.952519 -0.135248
v 0.421171 1.174412 -0.061846
v -0.257506 0.504442 0.085176
v -0.391161 0.656116 -0.002702
v -0.391161 0.656116 -0.002702
v -0.284871 0.534862 -0.097267
v -0.231265 0.860228 -0.008165
v -0.414144 0.919403 -0.080000
v -0.386951 0.914107 0.074332
v -0.386951 0.914107 0.074332
v 0.116194 1.194362 0.040285
v 0.164006 1.293115 -0.114685
v 0.069540 1.374874 -0.019277
v 0.069540 1.374874 -0.019277
v 0.182667 1.333765 0.073788
v 0.182667 1.333765 0.073788
v 0.343847 0.951419 -0.009453
v 0.343847 0.951419 -0.009453
v 0.150735 0.732840 -0.004382
v 0.243388 0.662035 -0.099004
v 0.257238 0.651266 0.081554
v 0.257238 0.651266 0.081554
v 0.097957 1.428972 -0.007206
v 0.097957 1.428972 -0.007206
v 0.057072 1.418669 -0.004456
v 0.067747 1.420423 -0.045622
v 0.156061 1.232380 0.005926
v 0.156061 1.232380 0.005926
v 0.122266 1.220883 -0.015704
v 0.162514 1.233543 -0.034715
v 0.211116 1.414508 -0.016107
v 0.211116 1.414508 -0.016107
v 0.190891 1.418838 0.003120
v 0.168030 1.420272 -0.044315
v 0.187215 1.187936 0.007077
v 0.217448 1.196497 -0.040987
v 0.243843 1.206375 -0.003358
v 0.243843 1.206375 -0.003358
v 0.309878 1.339006 0.002585
v 0.309878 1.339006 0.002585
v 0.272358 1.349739 -0.018693
v 0.304772 1.339523 -0.041072
v 0.229500 1.082581 0.014144
v 0.229500 1.082581 0.014144
v 0.239923 1.083950 -0.029751
v 0.198552 1.076976 -0.022694
v -0.437827 0.498532 0.062233
v -0.437827 0.498532 0.062233
v -0.270334 0.608301 0.133274
v -0.164441 0.682174 -0.022143
v -0.380985 0.530156 -0.123474
v -0.323570 1.376141 0.100654
v -0.323570 1.376141 0.100654
v -0.096844 1.450000 -0.021019
v -0.357274 1.359146 -0.120923
v 0.024475 0.395207 0.244923
v 0.024475 0.395207 0.244923
v 0.024475 0.395207 0.244923
v 0.024475 0.395207 0.244923
v -0.052129 0.666748 0.199881
v -0.052129 0.666748 0.199881
v -0.052129 0.666748 0.199881
v -0.052129 0.666748 0.199881
v -0.052129 0.666748 0.199881
v -0.052129 0.666748 0.199881
v 0.055621 0.773341 -0.048242
v 0.055621 0.773341 -0.048242
v 0.055621 0.773341 -0.048242
v 0.055621 0.773341 -0.048242
v 0.055621 0.773341 -0.048242
v 0.055621 0.773341 -0.048242
v -0.080913 0.642785 -0.205216
v -0.080913 0.642785 -0.205216
v -0.080913 0.642785 -0.205216
v -0.080913 0.642785 -0.205216
v -0.080913 0.642785 -0.205216
v 0.387325 0.651772 -0.102047
v 0.387325 0.651772 -0.102047
v 0.387325 0.651772 -0.102047
v 0.387325 0.651772 -0.102047
v 0.387325 0.651772 -0.102047
v 0.387325 0.651772 -0.102047
v 0.342358 0.625037 0.167711
v 0.342358 0.625037 0.167711
v 0.342358 0.625037 0.167711
v 0.342358 0.625037 0.167711
v 0.342358 0.625037 0.167711
v 0.342358 0.625037 0.167711
v 0.318603 0.407575 -0.160372
v 0.318603 0.407575 -0.160372
v 0.318603 0.407575 -0.160372
v 0.157200 0.000000 -0.029164
v 0.157200 0.000000 -0.029164
v 0.157200 0.000000 -0.029164
v 0.157200 0.000000 -0.029164
v 0.157200 0.000000 -0.029164
v 0.157200 0.000000 -0.029164
v 0.157200 0.000000 -0.029164
v 0.106558 0.061620 0.127882
v 0.106558 0.061620 0.127882
v 0.106558 0.061620 0.127882
v 0.106558 0.061620 0.127882
v 0.106558 0.061620 0.127882
v 0.014544 0.375974 -0.244923
v 0.014544 0.375974 -0.244923
v 0.014544 0.375974 -0.244923
v 0.014544 0.375974 -0.244923
v 0.014544 0.375974 -0.244923
v 0.014544 0.375974 -0.244923
v -0.302195 0.222856 0.080006
v -0.302195 0.222856 0.080006
v -0.302195 0.222856 0.080006
v -0.302195 0.222856 0.080006
v -0.320057 0.429769 0.195791
v -0.320057 0.429769 0.195791
v -0.320057 0.429769 0.195791
v -0.320057 0.429769 0.195791
v -0.320057 0.429769 0.195791
v -0.320057 0.429769 0.195791
v -0.446587 0.373842 -0.090518
v -0.446587 0.373842 -0.090518
v -0.446587 0.373842 -0.090518
v -0.446587 0.373842 -0.090518
v -0.446587 0.373842 -0.090518
v -0.446587 0.373842 -0.090518
v -0.270118 0.430449 -0.213506
v -0.270118 0.430449 -0.213506
v -0.270118 0.430449 -0.213506
v -0.270118 0.430449 -0.213506
v -0.426318 0.759140 0.057825
v -0.426318 0.759140 0.057825
v -0.426318 0.759140 0.057825
v -0.426318 0.759140 0.057825
v -0.426318 0.759140 0.057825
v -0.241347 0.762200 -0.170588
v -0.241347 0.762200 -0.170588
v -0.241347 0.762200 -0.170588
v -0.241347 0.762200 -0.170588
v -0.241347 0.762200 -0.170588
v -0.208515 0.839650 0.052326
v -0.208515 0.839650 0.052326
v -0.208515 0.839650 0.052326
v -0.208515 0.839650 0.052326
v -0.013540 0.812122 0.081053
v -0.066518 0.551411 0.074972
v 0.094243 0.708065 0.090215
v 0.002067 0.806058 -0.159354
v 0.071083 0.744925 -0.039120
v -0.027750 0.508489 -0.036101
v 0.124061 1.005635 -0.033039
v -0.102748 0.929909 0.042092
v -0.063980 0.886986 -0.068981
v -0.135533 0.612545 -0.045262
v 0.289896 1.027135 0.117117
v 0.200688 1.144922 0.078156
v 0.058013 1.086563 0.057334
v 0.426871 1.129953 0.038046
v 0.194988 1.189381 -0.021736
v 0.200688 1.144922 0.078156
v 0.439579 1.019007 0.001346
v 0.296904 0.960648 -0.019476
v -0.400547 0.916755 -0.002834
v -0.402652 0.787760 -0.041351
v -0.389056 0.785112 0.035815
v -0.389056 0.785112 0.035815
v -0.324333 0.580279 0.041237
v -0.322228 0.709275 0.079754
v -0.349507 0.727133 -0.088634
v -0.338016 0.595489 -0.049985
v 0.149431 1.264063 0.057037
v -0.102142 1.123936 0.074060
v -0.135378 1.054235 0.057309
v 0.263257 1.142592 0.032168
v 0.253927 1.122267 -0.062069
v 0.173336 1.313440 -0.020448
v 0.186716 0.922814 0.060920
v 0.219953 0.992515 0.077671
v 0.133464 0.963601 0.017952
v 0.140100 1.243739 -0.037200
v 0.157370 1.012978 -0.059533
v 0.203986 0.692053 0.038586
v 0.197061 0.697437 -0.051693
v 0.203697 0.977575 -0.106845
v 0.300543 0.801342 0.036051
v 0.263257 1.142592 0.032168
v 0.115131 1.326983 -0.040169
v 0.082852 1.424697 -0.026414
v 0.130236 1.331257 -0.020961
v 0.227479 1.310442 -0.009733
v 0.199166 1.301222 -0.004515
v 0.215529 1.197155 0.001860
v 0.272348 1.211737 -0.035412
v 0.307325 1.339264 -0.019244
v 0.274901 1.211478 -0.013583
v 0.219237 1.080463 -0.026223
v 0.251662 1.208250 -0.031883
v -0.296952 0.992221 0.116964
v -0.380699 0.937337 0.081443
v -0.354081 0.553417 0.097754
v -0.340422 1.367644 -0.010135
v -0.397550 0.928839 -0.029345
v -0.380699 0.937337 0.081443
v -0.130643 1.066087 -0.021581
v -0.183589 1.029151 0.056128
v -0.217388 0.645237 0.055565
v 0.001746 0.720044 0.075819
v -0.076447 0.806495 0.002042
v -0.130322 0.753199 0.126104
v 0.221473 0.712556 -0.075145
v 0.153206 0.647278 -0.153631
v -0.012646 0.708063 -0.126729
v 0.198989 0.699189 0.059734
v 0.364841 0.638404 0.032832
v 0.221473 0.712556 -0.075145
v 0.127009 1.330676 -0.000640
v 0.077515 1.423820 -0.005831
v 0.106567 1.325525 0.000735
v 0.089669 1.319776 -0.010080
v 0.139164 1.226632 -0.004889
v 0.364841 0.638404 0.032832
v 0.249779 0.312518 0.069274
v 0.272262 0.325886 -0.065605
v 0.183416 0.510122 0.206317
v 0.065516 0.228414 0.186403
v 0.224458 0.343329 0.147797
v -0.097819 0.142238 0.103944
v -0.072498 0.111428 0.025421
v 0.131879 0.030810 0.049359
v -0.072498 0.111428 0.025421
v -0.374391 0.298349 -0.005256
v -0.144693 0.186921 -0.059841
v -0.147791 0.412488 0.220357
v -0.106750 0.245695 0.161837
v 0.065516 0.228414 0.186403
v -0.216021 0.374908 -0.167721
v -0.358352 0.402145 -0.152012
v -0.127787 0.403212 -0.229214
v -0.311126 0.326312 0.137898
v -0.097819 0.142238 0.103944
v -0.106750 0.245695 0.161837
v -0.373188 0.594454 0.126808
v -0.436452 0.566491 -0.016347
v -0.383322 0.401805 0.052636
v -0.161130 0.702492 -0.187902
v -0.175515 0.536617 -0.209361
v -0.255732 0.596324 -0.192047
v -0.130322 0.753199 0.126104
v -0.317416 0.799395 0.055076
v -0.239223 0.712944 0.128853
v -0.033184 0.509380 -0.225069
v -0.127787 0.403212 -0.229214
v -0.175515 0.536617 -0.209361
v -0.224931 0.800925 -0.059131
v -0.076447 0.806495 0.002042
v -0.092863 0.767770 -0.109415
v -0.092863 0.767770 -0.109415
v -0.012646 0.708063 -0.126729
v -0.161130 0.702492 -0.187902
v -0.102748 0.929909 0.042092
v 0.034853 1.123422 -0.072000
v 0.261035 1.108453 -0.112110
v 0.273743 0.997507 -0.148811
v 0.433879 1.063466 -0.098547
v -0.309108 0.887167 0.033084
v -0.244386 0.682335 0.038506
v -0.258068 0.697545 -0.052716
v -0.271188 0.519652 -0.006046
v -0.322705 0.889815 -0.044082
v -0.057536 1.027295 0.016060
v -0.125069 1.106259 -0.097343
v -0.033630 1.076671 -0.061425
v -0.158705 1.144491 0.027528
v -0.172302 1.147139 -0.049638
v 0.126103 1.354319 0.027256
v -0.158705 1.144491 0.027528
v 0.116773 1.333995 -0.066981
v 0.126103 1.354319 0.027256
v 0.293618 0.806727 -0.054229
v 0.300543 0.801342 0.036051
v 0.250313 0.656650 -0.008725
v 0.095007 1.320653 -0.030663
v 0.062410 1.419546 -0.025039
v 0.127009 1.330676 -0.000640
v 0.159288 1.232962 -0.014395
v 0.192739 1.308384 -0.042651
v 0.189573 1.417390 -0.030211
v 0.214282 1.305503 -0.028547
v 0.227479 1.310442 -0.009733
v 0.230645 1.201436 -0.022173
v 0.142390 1.227213 -0.025210
v 0.189053 1.303387 0.005099
v 0.201003 1.416673 -0.006493
v 0.179461 1.419555 -0.020597
v 0.177623 1.304104 -0.018619
v 0.202332 1.192216 -0.016955
v -0.272713 0.606165 -0.072809
v -0.369130 0.944651 -0.122199
v -0.260857 1.020660 -0.071533
v -0.227059 1.404573 -0.070971
v 0.250929 1.216160 -0.002275
v 0.269689 1.210793 0.008364
v 0.291118 1.344372 -0.008054
v 0.235455 1.213358 -0.020694
v 0.288565 1.344631 -0.029883
v 0.269689 1.210793 0.008364
v 0.234712 1.083265 -0.007804
v 0.214026 1.079778 -0.004275
v -0.409406 0.514344 -0.030620
v -0.210207 1.413071 0.039817
v -0.255732 0.596324 -0.192047
v -0.358352 0.402145 -0.152012
v -0.343967 0.568021 -0.130553
v -0.436452 0.566491 -0.016347
v -0.333832 0.760670 -0.056382
v -0.013827 0.530977 0.222402
v 0.183416 0.510122 0.206317
v 0.145115 0.645892 0.183796
v -0.033184 0.509380 -0.225069
v 0.153206 0.647278 -0.153631
v 0.200934 0.513873 -0.173485
v 0.001746 0.720044 0.075819
v 0.145115 0.645892 0.183796
v 0.198989 0.699189 0.059734
v 0.200934 0.513873 -0.173485
v 0.352964 0.529673 -0.131209
v 0.166574 0.391775 -0.202648
v 0.272262 0.325886 -0.065605
v 0.237902 0.203787 -0.094768
v 0.352964 0.529673 -0.131209
v 0.249779 0.312518 0.069274
v 0.224458 0.343329 0.147797
v 0.131879 0.030810 0.049359
v 0.237902 0.203787 -0.094768
v 0.085872 0.187987 -0.137043
v 0.166574 0.391775 -0.202648
v 0.085872 0.187987 -0.137043
v -0.144693 0.186921 -0.059841
v -0.216021 0.374908 -0.167721
v -0.311126 0.326312 0.137898
v -0.383322 0.401805 0.052636
v -0.374391 0.298349 -0.005256
v -0.147791 0.412488 0.220357
v -0.013827 0.530977 0.222402
v -0.186093 0.548258 0.197836
v -0.373188 0.594454 0.126808
v -0.186093 0.548258 0.197836
v -0.239223 0.712944 0.128853
v -0.317416 0.799395 0.055076
v -0.224931 0.800925 -0.059131
v -0.333832 0.760670 -0.056382
v 0.066840 0.890449 0.088674
v 0.040351 0.760094 0.085634
v 0.120732 0.838421 0.093255
v -0.093921 0.733795 0.073431
v -0.120410 0.603439 0.070391
v -0.040029 0.681767 0.078012
v 0.013862 0.629738 0.082593
v -0.012627 0.499383 0.079552
v 0.067754 0.577710 0.087174
v -0.047349 0.687840 -0.157844
v -0.012841 0.657274 -0.097727
v -0.062258 0.539055 -0.096218
v 0.051484 0.924277 -0.160864
v 0.085991 0.893710 -0.100747
v 0.036575 0.775492 -0.099237
v 0.021666 0.626707 -0.037610
v 0.056174 0.596140 0.022507
v 0.006757 0.477922 0.024016
v 0.112480 1.024065 -0.097706
v 0.097572 0.875280 -0.036080
v 0.135641 0.987206 0.031628
v 0.109152 0.856850 0.028588
v 0.082663 0.726495 0.025547
v -0.138524 0.792688 0.053951
v -0.119141 0.771227 -0.001585
v -0.154917 0.634006 0.010274
v -0.066971 1.067129 0.030232
v -0.047587 1.045668 -0.025304
v -0.083364 0.908448 -0.013445
v -0.099757 0.749766 -0.057122
v -0.080373 0.728304 -0.112658
v -0.116150 0.591084 -0.100799
v 0.218558 0.997956 0.106707
v 0.173955 1.056849 0.087226
v 0.102617 1.027669 0.076815
v 0.361233 1.056315 0.127528
v 0.316630 1.115208 0.108047
v 0.245292 1.086029 0.097637
v 0.129351 1.115743 0.067745
v 0.084747 1.174636 0.048265
v 0.013410 1.145457 0.037854
v 0.429721 1.107724 0.087993
v 0.313779 1.137438 0.058101
v 0.316630 1.115208 0.108047
v 0.424021 1.152183 -0.011900
v 0.308079 1.181896 -0.041791
v 0.310929 1.159667 0.008155
v 0.197838 1.167152 0.028210
v 0.081897 1.196866 -0.001682
v 0.084747 1.174636 0.048265
v 0.443083 0.985763 -0.066951
v 0.368241 0.989827 -0.009065
v 0.371745 0.956584 -0.077362
v 0.436075 1.052251 0.069642
v 0.364737 1.023071 0.059231
v 0.293400 0.993891 0.048821
v 0.222062 0.964712 0.038410
v -0.393749 0.915431 0.035749
v -0.394802 0.850933 0.016491
v -0.388003 0.849610 0.055074
v -0.407346 0.918079 -0.041417
v -0.408398 0.853581 -0.060675
v -0.401600 0.852257 -0.022092
v -0.395854 0.786436 -0.002768
v -0.396906 0.721938 -0.022026
v -0.390108 0.720614 0.016557
v -0.388003 0.849610 0.055074
v -0.355642 0.747193 0.057785
v -0.354590 0.811691 0.077043
v -0.390108 0.720614 0.016557
v -0.357747 0.618198 0.019268
v -0.356694 0.682696 0.038526
v -0.323281 0.644777 0.060496
v -0.290919 0.542361 0.063207
v -0.289867 0.606858 0.082465
v -0.370334 0.691624 -0.045668
v -0.364588 0.625803 -0.026343
v -0.381826 0.823268 -0.084317
v -0.376080 0.757446 -0.064992
v -0.343762 0.661311 -0.069309
v -0.317189 0.630997 -0.092951
v -0.311443 0.565176 -0.073626
v 0.132812 1.229213 0.048661
v 0.007026 1.159149 0.057173
v -0.009592 1.124298 0.048797
v 0.166049 1.298914 0.065412
v 0.040262 1.228850 0.073924
v 0.023644 1.194000 0.065548
v -0.118760 1.089085 0.065685
v -0.244546 1.019022 0.074196
v -0.261165 0.984171 0.065821
v 0.222962 1.238178 0.052978
v 0.218297 1.228016 0.005860
v 0.178002 1.323602 0.026670
v 0.303552 1.047005 0.011357
v 0.298887 1.036843 -0.035761
v 0.258592 1.132430 -0.014951
v 0.213632 1.217854 -0.041259
v 0.208966 1.207691 -0.088377
v 0.168671 1.303278 -0.067567
v 0.151455 1.058588 0.050602
v 0.168073 1.093439 0.058978
v 0.221977 0.787040 0.071237
v 0.238595 0.821891 0.079613
v 0.203334 0.957665 0.069295
v 0.184692 1.128289 0.067354
v 0.201310 1.163140 0.075730
v 0.142100 0.848220 0.006785
v 0.145417 0.988289 -0.020791
v 0.154052 0.872909 -0.031958
v 0.124829 1.078981 0.029118
v 0.128147 1.219050 0.001543
v 0.136782 1.103670 -0.009624
v 0.148735 1.128358 -0.048367
v 0.152053 1.268427 -0.075942
v 0.160688 1.153046 -0.087109
v 0.177361 0.712446 0.017102
v 0.168725 0.827827 0.028269
v 0.230612 0.671659 0.060070
v 0.195351 0.807433 0.049753
v 0.160090 0.943207 0.039436
v 0.220224 0.679736 -0.075349
v 0.200379 0.837506 -0.079269
v 0.223542 0.819805 -0.102925
v 0.173898 0.715138 -0.028038
v 0.177216 0.855207 -0.055613
v 0.180534 0.995276 -0.083189
v 0.183851 1.135345 -0.110765
v 0.278890 0.726304 0.058802
v 0.260248 0.896929 0.056861
v 0.322195 0.876381 0.013299
v 0.303552 1.047005 0.011357
v 0.281900 0.971967 0.034109
v 0.241605 1.067554 0.054919
v 0.222962 1.238178 0.052978
v 0.138823 1.280263 -0.037442
v 0.122683 1.329120 -0.030565
v 0.146375 1.282400 -0.027838
v 0.091439 1.373703 -0.042895
v 0.075300 1.422560 -0.036018
v 0.098991 1.375840 -0.033291
v 0.106544 1.377977 -0.023688
v 0.090405 1.426835 -0.016810
v 0.114097 1.380114 -0.014084
v 0.235661 1.258408 -0.006545
v 0.221504 1.253798 -0.003936
v 0.229686 1.201765 -0.000749
v 0.219298 1.362475 -0.012920
v 0.205141 1.357865 -0.010311
v 0.213323 1.305832 -0.007124
v 0.207347 1.249189 -0.001328
v 0.193191 1.244579 0.001281
v 0.201372 1.192546 0.004468
v 0.256135 1.147844 -0.032582
v 0.273624 1.211607 -0.024498
v 0.257412 1.147714 -0.021667
v 0.288560 1.275630 -0.038242
v 0.306049 1.339394 -0.030158
v 0.289836 1.275500 -0.027328
v 0.291113 1.275371 -0.016414
v 0.308602 1.339135 -0.008330
v 0.292389 1.275242 -0.005499
v 0.229580 1.082207 -0.027987
v 0.245793 1.146100 -0.030817
v 0.208895 1.078720 -0.024458
v 0.225107 1.142613 -0.027288
v 0.235450 1.144357 -0.029053
v 0.262005 1.209993 -0.033648
v 0.278217 1.273886 -0.036478
v -0.283643 0.800261 0.125119
v -0.325516 0.772819 0.107359
v -0.312207 0.580859 0.115514
v -0.310261 1.184181 0.108809
v -0.352135 1.156739 0.091049
v -0.338826 0.964779 0.099204
v -0.367390 0.745377 0.089599
v -0.409263 0.717934 0.071838
v -0.395954 0.525974 0.079993
v -0.331996 1.371892 0.045260
v -0.360560 1.152490 0.035654
v -0.352135 1.156739 0.091049
v -0.348848 1.363395 -0.065529
v -0.377412 1.143992 -0.075134
v -0.368986 1.148241 -0.019740
v -0.389124 0.933088 0.026049
v -0.417689 0.713686 0.016444
v -0.409263 0.717934 0.071838
v -0.147542 0.874130 -0.021862
v -0.174015 0.855662 0.016992
v -0.190914 0.663706 0.016711
v -0.113743 1.258043 -0.021300
v -0.140216 1.239575 0.017554
v -0.157116 1.047619 0.017273
v -0.200488 0.837194 0.055846
v -0.226962 0.818726 0.094701
v -0.243861 0.626769 0.094420
v -0.025191 0.693396 0.137850
v -0.064288 0.736622 0.100961
v -0.091225 0.709973 0.162992
v 0.028683 0.746692 0.013788
v -0.010413 0.789918 -0.023100
v -0.037350 0.763270 0.038931
v -0.103384 0.779847 0.064073
v -0.142481 0.823073 0.027184
v -0.169418 0.796424 0.089215
v 0.138547 0.742948 -0.061693
v 0.104413 0.710309 -0.100937
v 0.021487 0.740702 -0.087486
v 0.304399 0.682164 -0.088596
v 0.270265 0.649525 -0.127839
v 0.187339 0.679917 -0.114388
v 0.070280 0.677670 -0.140180
v 0.036147 0.645031 -0.179423
v -0.046779 0.675424 -0.165972
v 0.127305 0.736265 0.005746
v 0.210231 0.705873 -0.007705
v 0.138547 0.742948 -0.061693
v 0.270673 0.662113 0.113723
v 0.353599 0.631721 0.100272
v 0.281915 0.668797 0.046283
v 0.293157 0.675480 -0.021156
v 0.376083 0.645088 -0.034607
v 0.304399 0.682164 -0.088596
v 0.141535 1.281528 0.002643
v 0.116788 1.328100 0.000047
v 0.131314 1.278953 0.003330
v 0.112483 1.379824 -0.003923
v 0.087736 1.426396 -0.006519
v 0.102262 1.377248 -0.003236
v 0.092041 1.374672 -0.002548
v 0.067293 1.421244 -0.005144
v 0.081819 1.372097 -0.001861
v 0.122865 1.276078 -0.002077
v 0.147612 1.229506 0.000518
v 0.073371 1.369222 -0.007268
v 0.098118 1.322650 -0.004673
v 0.114416 1.273204 -0.007485
v 0.105968 1.270329 -0.012892
v 0.130715 1.223757 -0.010297
v 0.376083 0.645088 -0.034607
v 0.318552 0.482145 -0.016386
v 0.329794 0.488829 -0.083826
v 0.353599 0.631721 0.100272
v 0.296068 0.468778 0.118492
v 0.307310 0.475461 0.051053
v 0.261021 0.319202 0.001834
v 0.203489 0.156259 0.020055
v 0.214731 0.162943 -0.047384
v 0.262887 0.567580 0.187014
v 0.203937 0.426725 0.177057
v 0.283408 0.484183 0.157754
v 0.103946 0.452665 0.225620
v 0.044996 0.311810 0.215663
v 0.124466 0.369268 0.196360
v 0.144987 0.285871 0.167100
v 0.086037 0.145017 0.157143
v 0.165508 0.202474 0.137840
v 0.004370 0.101929 0.115913
v 0.017030 0.086524 0.076652
v 0.119218 0.046215 0.088621
v -0.200007 0.182547 0.091975
v -0.187347 0.167142 0.052713
v -0.085158 0.126833 0.064683
v 0.029691 0.071119 0.037390
v 0.042351 0.055714 -0.001871
v 0.144540 0.015405 0.010098
v 0.042351 0.055714 -0.001871
v -0.108595 0.149174 -0.017210
v 0.006253 0.093460 -0.044502
v -0.187347 0.167142 0.052713
v -0.338293 0.260602 0.037375
v -0.223444 0.204888 0.010082
v -0.259542 0.242635 -0.032549
v -0.410489 0.336095 -0.047887
v -0.295640 0.280381 -0.075180
v -0.061658 0.403848 0.232640
v -0.041137 0.320451 0.203380
v 0.044996 0.311810 0.215663
v -0.233924 0.421129 0.208074
v -0.213404 0.337732 0.178814
v -0.127270 0.329091 0.191097
v -0.020617 0.237054 0.174120
v -0.000096 0.153657 0.144860
v 0.086037 0.145017 0.157143
v -0.100738 0.375441 -0.206322
v -0.171904 0.389060 -0.198468
v -0.056621 0.389593 -0.237069
v -0.331304 0.374375 -0.129120
v -0.402469 0.387993 -0.121265
v -0.287187 0.388527 -0.159866
v -0.243069 0.402678 -0.190613
v -0.314235 0.416297 -0.182759
v -0.198952 0.416830 -0.221360
v -0.315592 0.378041 0.166845
v -0.208938 0.286004 0.149868
v -0.213404 0.337732 0.178814
v -0.306661 0.274584 0.108952
v -0.200007 0.182547 0.091975
v -0.204473 0.234275 0.120921
v -0.102284 0.193966 0.132890
v 0.004370 0.101929 0.115913
v -0.000096 0.153657 0.144860
v -0.346623 0.512112 0.161300
v -0.378255 0.498130 0.089722
v -0.351690 0.415787 0.124214
v -0.399753 0.676797 0.092316
v -0.431385 0.662815 0.020739
v -0.404820 0.580473 0.055231
v -0.409887 0.484148 0.018145
v -0.441519 0.470166 -0.053433
v -0.414954 0.387824 -0.018941
v -0.201238 0.732346 -0.179245
v -0.208431 0.649408 -0.189974
v -0.248539 0.679262 -0.181317
v -0.121021 0.672638 -0.196559
v -0.128214 0.589701 -0.207288
v -0.168322 0.619555 -0.198631
v -0.215624 0.566471 -0.200704
v -0.222816 0.483533 -0.211433
v -0.262925 0.513387 -0.202776
v -0.091225 0.709973 0.162992
v -0.184773 0.733071 0.127478
v -0.145676 0.689846 0.164367
v -0.169418 0.796424 0.089215
v -0.262965 0.819522 0.053701
v -0.223869 0.776297 0.090590
v -0.278320 0.756169 0.091964
v -0.371867 0.779267 0.056450
v -0.332771 0.736042 0.093339
v -0.057048 0.576082 -0.215143
v -0.104350 0.522998 -0.217215
v -0.128214 0.589701 -0.207288
v -0.009320 0.442677 -0.234996
v -0.056621 0.389593 -0.237069
v -0.080485 0.456296 -0.227142
v -0.151651 0.469914 -0.219288
v -0.198952 0.416830 -0.221360
v -0.222816 0.483533 -0.211433
v -0.233139 0.781562 -0.114859
v -0.158897 0.784348 -0.084273
v -0.167105 0.764985 -0.140002
v -0.216723 0.820287 -0.003402
v -0.142481 0.823073 0.027184
v -0.150689 0.803710 -0.028544
v -0.084655 0.787133 -0.053687
v -0.010413 0.789918 -0.023100
v -0.018621 0.770556 -0.078829
v -0.167105 0.764985 -0.140002
v -0.126996 0.735131 -0.148658
v -0.201238 0.732346 -0.179245
v -0.018621 0.770556 -0.078829
v 0.021487 0.740702 -0.087486
v -0.052754 0.737916 -0.118072
v -0.086888 0.705277 -0.157315
v -0.046779 0.675424 -0.165972
v -0.121021 0.672638 -0.196559
v 0.022237 0.949342 0.069194
v -0.066971 1.067129 0.030232
v -0.022367 1.008236 0.049713
v -0.058144 0.871015 0.061572
v -0.138524 0.792688 0.053951
v -0.030956 0.846522 -0.114168
v 0.001830 1.163886 -0.026814
v -0.014563 1.005204 -0.070491
v 0.018460 0.964740 -0.115677
v 0.067877 1.082959 -0.117187
v 0.114921 1.156402 -0.046868
v 0.341103 1.141433 -0.086978
v 0.228012 1.148917 -0.066923
v 0.147944 1.115938 -0.092055
v 0.180968 1.075474 -0.137242
v 0.187322 1.020001 -0.155592
v 0.198902 1.001571 -0.090925
v 0.360165 0.975013 -0.142029
v 0.285324 0.979077 -0.084143
v 0.210482 0.983142 -0.026257
v 0.267389 1.052980 -0.130460
v 0.427525 1.118939 -0.080196
v 0.347457 1.085959 -0.105328
v 0.353811 1.030486 -0.123679
v 0.440233 1.007993 -0.116897
v -0.270187 0.873697 0.012460
v -0.276747 0.784751 0.035795
v -0.237825 0.771281 0.015171
v -0.348029 0.900637 0.053708
v -0.315668 0.798221 0.056419
v -0.283307 0.695805 0.059130
v -0.250946 0.593389 0.061841
v -0.271469 0.616203 -0.074992
v -0.264628 0.608598 -0.029381
v -0.278029 0.527257 -0.051656
v -0.244667 0.778886 -0.030440
v -0.251227 0.689940 -0.007105
v -0.257787 0.600993 0.016230
v -0.264347 0.512047 0.039565
v -0.303788 0.712339 -0.070675
v -0.368424 0.904609 -0.062041
v -0.336106 0.808474 -0.066358
v -0.290386 0.793680 -0.048399
v -0.276985 0.875021 -0.026124
v -0.144400 0.943761 0.003948
v -0.183322 0.957231 0.024572
v 0.029329 1.110828 0.028173
v -0.096457 1.040765 0.036684
v -0.222243 0.970701 0.045196
v -0.269606 1.012831 -0.088671
v -0.223887 0.998037 -0.070712
v 0.019469 1.199687 -0.106014
v 0.065188 1.184893 -0.088055
v -0.079349 1.091465 -0.079384
v -0.178167 0.983243 -0.052754
v -0.132448 0.968450 -0.034795
v -0.272828 1.029299 0.050930
v -0.279626 1.030623 0.012347
v -0.044583 1.259682 0.004126
v -0.051381 1.261006 -0.034457
v -0.165504 1.145815 -0.011055
v -0.286425 1.031947 -0.026236
v -0.293223 1.033271 -0.064819
v -0.130424 1.134213 0.050794
v -0.272828 1.029299 0.050930
v 0.154385 1.344042 0.050522
v 0.011981 1.239128 0.050658
v -0.016301 1.249405 0.027392
v 0.097822 1.364597 0.003990
v -0.044583 1.259682 0.004126
v 0.093157 1.354435 -0.043129
v -0.027764 1.240567 -0.058310
v 0.140390 1.313555 -0.090833
v -0.004148 1.220127 -0.082162
v -0.148685 1.126699 -0.073490
v 0.053235 1.160205 -0.049312
v 0.041282 1.135517 -0.010570
v -0.045583 1.051983 -0.022682
v 0.097822 1.364597 0.003990
v 0.121438 1.344157 -0.019862
v 0.154385 1.344042 0.050522
v 0.149720 1.333880 0.003404
v 0.145055 1.323717 -0.043715
v 0.318732 0.879073 -0.031841
v 0.273772 0.964497 -0.058149
v 0.268503 0.734381 -0.076616
v 0.248657 0.892151 -0.080537
v 0.228812 1.049921 -0.084457
v 0.322195 0.876381 0.013299
v 0.297080 0.804035 -0.009089
v 0.278890 0.726304 0.058802
v 0.253776 0.653958 0.036415
v 0.275428 0.728996 0.013663
v 0.271965 0.731688 -0.031477
v 0.246850 0.659342 -0.053865
v 0.081377 1.370538 -0.038143
v 0.078708 1.370099 -0.027851
v 0.065078 1.419985 -0.035331
v 0.108636 1.270768 -0.023184
v 0.092338 1.320214 -0.020372
v 0.076039 1.369661 -0.017560
v 0.059741 1.419107 -0.014748
v 0.112483 1.379824 -0.003923
v 0.128623 1.330967 -0.010801
v 0.141535 1.281528 0.002643
v 0.157675 1.232671 -0.004235
v 0.143149 1.281819 -0.007518
v 0.144762 1.282110 -0.017678
v 0.160901 1.233252 -0.024555
v 0.205094 1.252441 -0.041819
v 0.203511 1.306943 -0.035599
v 0.215865 1.251000 -0.034767
v 0.180385 1.364328 -0.043483
v 0.178802 1.418831 -0.037263
v 0.191156 1.362887 -0.036431
v 0.201928 1.361446 -0.029379
v 0.200345 1.415949 -0.023159
v 0.212699 1.360005 -0.022327
v 0.222464 1.253469 -0.025360
v 0.224047 1.198966 -0.031580
v 0.219298 1.362475 -0.012920
v 0.220881 1.307972 -0.019140
v 0.229062 1.255939 -0.015953
v 0.235661 1.258408 -0.006545
v 0.237244 1.203905 -0.012765
v 0.152452 1.230378 -0.029963
v 0.128761 1.277098 -0.032689
v 0.132328 1.224048 -0.020457
v 0.118699 1.273933 -0.027936
v 0.105069 1.323818 -0.035416
v 0.189972 1.361112 0.004110
v 0.195028 1.360030 -0.000697
v 0.195947 1.417755 -0.001687
v 0.188134 1.245661 0.006088
v 0.194109 1.302304 0.000292
v 0.200085 1.358948 -0.005504
v 0.206060 1.415591 -0.011300
v 0.185176 1.419196 -0.008739
v 0.184257 1.361471 -0.007749
v 0.173746 1.419913 -0.032456
v 0.172827 1.362188 -0.031467
v 0.178542 1.361829 -0.019608
v 0.183338 1.303745 -0.006760
v 0.182419 1.246020 -0.005771
v 0.185181 1.306244 -0.030635
v 0.209890 1.194357 -0.028971
v 0.197536 1.250300 -0.029803
v 0.189977 1.248160 -0.017787
v 0.194774 1.190076 -0.004939
v -0.218577 0.644169 -0.047476
v -0.266785 0.813412 -0.072171
v -0.212649 0.851417 -0.046838
v -0.326849 0.568161 -0.098141
v -0.375057 0.737404 -0.122836
v -0.320921 0.775408 -0.097504
v -0.314993 0.982655 -0.096866
v -0.363202 1.151899 -0.121561
v -0.309066 1.189903 -0.096228
v -0.195750 1.043373 -0.046557
v -0.292166 1.381859 -0.095947
v -0.243958 1.212616 -0.071252
v -0.178851 1.235330 -0.046276
v -0.161951 1.427286 -0.045995
v 0.261643 1.282949 -0.010484
v 0.271023 1.280266 -0.005165
v 0.281738 1.347056 -0.013374
v 0.240214 1.149370 0.005935
v 0.249594 1.146687 0.011254
v 0.260309 1.213476 0.003045
v 0.280404 1.277583 0.000155
v 0.289784 1.274899 0.005474
v 0.300498 1.341689 -0.002735
v 0.270113 1.276440 -0.030883
v 0.296668 1.342077 -0.035478
v 0.217003 1.145167 -0.021694
v 0.243558 1.210804 -0.026288
v 0.262010 1.278994 -0.025288
v 0.253906 1.281548 -0.019693
v 0.280461 1.347185 -0.024288
v 0.289784 1.274899 0.005474
v 0.272295 1.211136 -0.002610
v 0.249594 1.146687 0.011254
v 0.232106 1.082923 0.003170
v 0.252200 1.147029 0.000280
v 0.254806 1.147372 -0.010694
v 0.237317 1.083608 -0.018778
v 0.243192 1.214759 -0.011484
v 0.206289 1.078377 -0.013484
v 0.224740 1.146568 -0.012484
v 0.232477 1.147969 -0.003275
v 0.221763 1.081179 0.004934
v -0.403478 0.721592 -0.029983
v -0.423616 0.506438 0.015806
v -0.383340 0.936745 -0.075772
v -0.389268 0.729498 -0.076409
v -0.395196 0.522250 -0.077047
v -0.240271 1.010686 0.086546
v -0.153526 1.431535 0.009399
v -0.196898 1.221111 0.047972
v -0.253580 1.202646 0.078391
v -0.266889 1.394606 0.070236
v -0.248539 0.679262 -0.181317
v -0.299849 0.582173 -0.161300
v -0.292657 0.665110 -0.150571
v -0.262925 0.513387 -0.202776
v -0.314235 0.416297 -0.182759
v -0.307042 0.499235 -0.172029
v -0.351159 0.485083 -0.141283
v -0.402469 0.387993 -0.121265
v -0.395277 0.470931 -0.110536
v -0.338899 0.664345 -0.093467
v -0.287590 0.761435 -0.113485
v -0.441519 0.470166 -0.053433
v -0.390209 0.567256 -0.073450
v -0.385142 0.663580 -0.036364
v -0.431385 0.662815 0.020739
v -0.380075 0.759905 0.000722
v -0.032978 0.598863 0.211141
v 0.065644 0.588435 0.203099
v 0.046493 0.656320 0.191838
v 0.005324 0.463092 0.233662
v 0.103946 0.452665 0.225620
v 0.084795 0.520550 0.214359
v 0.164265 0.578007 0.195056
v 0.262887 0.567580 0.187014
v 0.243736 0.635465 0.175753
v -0.009320 0.442677 -0.234996
v 0.083875 0.511626 -0.199277
v 0.107739 0.444924 -0.209204
v -0.057048 0.576082 -0.215143
v 0.036147 0.645031 -0.179423
v 0.060011 0.578329 -0.189350
v 0.177070 0.580576 -0.163558
v 0.270265 0.649525 -0.127839
v 0.294130 0.582822 -0.137766
v 0.028683 0.746692 0.013788
v 0.100368 0.709617 0.067777
v 0.127305 0.736265 0.005746
v -0.025191 0.693396 0.137850
v 0.046493 0.656320 0.191838
v 0.073430 0.682968 0.129807
v 0.172052 0.672541 0.121765
v 0.243736 0.635465 0.175753
v 0.270673 0.662113 0.113723
v 0.107739 0.444924 -0.209204
v 0.183754 0.452824 -0.188066
v 0.090559 0.383875 -0.223785
v 0.294130 0.582822 -0.137766
v 0.370144 0.590722 -0.116628
v 0.276949 0.521773 -0.152347
v 0.259769 0.460724 -0.166928
v 0.335784 0.468624 -0.145791
v 0.242589 0.399675 -0.181510
v 0.329794 0.488829 -0.083826
v 0.312613 0.427780 -0.098407
v 0.370144 0.590722 -0.116628
v 0.214731 0.162943 -0.047384
v 0.197551 0.101894 -0.061966
v 0.255082 0.264837 -0.080186
v 0.295433 0.366730 -0.112989
v 0.278252 0.305681 -0.127570
v 0.335784 0.468624 -0.145791
v 0.203489 0.156259 0.020055
v 0.190829 0.171664 0.059317
v 0.144540 0.015405 0.010098
v 0.296068 0.468778 0.118492
v 0.283408 0.484183 0.157754
v 0.237118 0.327924 0.108535
v 0.178168 0.187069 0.098578
v 0.165508 0.202474 0.137840
v 0.119218 0.046215 0.088621
v 0.278252 0.305681 -0.127570
v 0.202238 0.297781 -0.148708
v 0.242589 0.399675 -0.181510
v 0.197551 0.101894 -0.061966
v 0.121536 0.093994 -0.083103
v 0.161887 0.195887 -0.115906
v 0.126223 0.289881 -0.169845
v 0.050208 0.281981 -0.190983
v 0.090559 0.383875 -0.223785
v 0.050208 0.281981 -0.190983
v -0.065074 0.281448 -0.152382
v -0.100738 0.375441 -0.206322
v 0.121536 0.093994 -0.083103
v 0.006253 0.093460 -0.044502
v -0.029411 0.187454 -0.098442
v -0.180357 0.280914 -0.113781
v -0.295640 0.280381 -0.075180
v -0.331304 0.374375 -0.129120
v -0.306661 0.274584 0.108952
v -0.342759 0.312331 0.066321
v -0.338293 0.260602 0.037375
v -0.315592 0.378041 0.166845
v -0.351690 0.415787 0.124214
v -0.347224 0.364059 0.095267
v -0.378856 0.350077 0.023690
v -0.414954 0.387824 -0.018941
v -0.410489 0.336095 -0.047887
v -0.233924 0.421129 0.208074
v -0.166942 0.480373 0.209097
v -0.253075 0.489014 0.196814
v -0.061658 0.403848 0.232640
v 0.005324 0.463092 0.233662
v -0.080809 0.471733 0.221379
v -0.099960 0.539618 0.210119
v -0.032978 0.598863 0.211141
v -0.119111 0.607503 0.198858
v -0.399753 0.676797 0.092316
v -0.306206 0.653699 0.127830
v -0.332771 0.736042 0.093339
v -0.346623 0.512112 0.161300
v -0.253075 0.489014 0.196814
v -0.279640 0.571356 0.162322
v -0.212658 0.630601 0.163344
v -0.119111 0.607503 0.198858
v -0.145676 0.689846 0.164367
v -0.371867 0.779267 0.056450
v -0.325624 0.780032 -0.000653
v -0.380075 0.759905 0.000722
v -0.262965 0.819522 0.053701
v -0.216723 0.820287 -0.003402
v -0.271174 0.800160 -0.002028
v -0.279382 0.780797 -0.057756
v -0.233139 0.781562 -0.114859
v -0.287590 0.761435 -0.113485
vt 0.006650 0.955972
vt 0.009978 0.033438
vt 0.018038 0.648597
vt 0.004147 0.314820
vt 0.449372 0.697729
vt 0.460009 0.367385
vt 0.431220 0.977578
vt 0.442469 0.065623
vt 0.983255 0.883206
vt 0.984784 0.000000
vt 1.000000 0.426832
vt 0.990716 0.155179
vt 0.000000 0.749098
vt 0.000507 0.081114
vt 0.000000 1.000000
vt 0.003696 0.322692
vt 0.290781 0.586418
vt 0.289521 0.190513
vt 0.281644 0.000000
vt 0.289814 0.939548
vt 0.703844 0.670608
vt 0.713597 0.314519
vt 0.681859 0.067768
vt 0.684381 1.000000
vt 0.718860 0.902886
vt 0.729022 0.000000
vt 0.878029 1.000000
vt 0.881308 0.089607
vt 1.000000 0.584972
vt 0.998166 0.358972
vt 1.000000 0.054467
vt 1.000000 0.878526
vt 0.000381 0.934685
vt 0.000533 0.053621
vt 0.000832 0.667599
vt 0.003030 0.394730
vt 1.000000 0.000000
vt 1.000000 0.911413
vt 0.996747 0.616129
vt 1.000000 0.207785
vt 0.011127 0.084178
vt 0.011172 0.999086
vt 0.000000 0.754031
vt 0.022880 0.374207
vt 1.000000 0.668565
vt 1.000000 0.360913
vt 1.000000 0.958354
vt 1.000000 0.083631
vt 0.000433 0.919804
vt 0.001691 0.041568
vt 0.001171 0.586521
vt 0.001071 0.256208
vt 0.617762 0.000000
vt 1.000000 0.805364
vt 0.999455 0.164108
vt 1.000000 0.498047
vt 0.012244 0.996716
vt 0.014119 0.079011
vt 0.006214 0.803628
vt 0.001093 0.570481
vt 0.023873 0.272849
vt 1.000000 0.000000
vt 1.000000 0.917930
vt 0.974835 0.626356
vt 1.000000 0.203737
vt 0.317946 0.114369
vt 0.317946 0.114369
vt 0.956189 0.039051
vt 0.317946 0.114369
vt 0.787527 0.213541
vt 0.787527 0.213541
vt 0.787527 0.213541
vt 0.787527 0.213541
vt 0.787527 0.213541
vt 0.787527 0.213541
vt 0.690753 0.561958
vt 0.690753 0.561958
vt 0.690753 0.561958
vt 0.690753 0.561958
vt 0.690753 0.561958
vt 0.690753 0.561958
vt 0.806675 0.823618
vt 0.806675 0.823618
vt 0.806675 0.823618
vt 0.806675 0.823618
vt 0.806675 0.823618
vt 0.560273 0.594660
vt 0.560273 0.594660
vt 0.560273 0.594660
vt 0.560273 0.594660
vt 0.560273 0.594660
vt 0.560273 0.594660
vt 0.544050 0.288894
vt 0.544050 0.288894
vt 0.544050 0.288894
vt 0.544050 0.288894
vt 0.544050 0.288894
vt 0.544050 0.288894
vt 0.460077 0.705037
vt 0.460077 0.705037
vt 0.460077 0.705037
vt 0.311393 0.559289
vt 0.311393 0.559289
vt 0.311393 0.559289
vt 0.311393 0.559289
vt 0.311393 0.559289
vt 0.311393 0.559289
vt 0.311393 0.559289
vt 0.311609 0.364445
vt 0.311609 0.364445
vt 0.311609 0.364445
vt 0.311609 0.364445
vt 0.311609 0.364445
vt 0.394863 0.851226
vt 0.394863 0.851226
vt 0.394863 0.851226
vt 0.394863 0.851226
vt 0.394863 0.851226
vt 0.394863 0.851226
vt 0.119594 0.427093
vt 0.119594 0.427093
vt 0.119594 0.427093
vt 0.119594 0.427093
vt 0.975264 0.186935
vt 0.054120 0.239608
vt 0.975264 0.186935
vt 0.054120 0.239608
vt 0.054120 0.239608
vt 0.054120 0.239608
vt 0.054800 0.577791
vt 0.054800 0.577791
vt 0.054800 0.577791
vt 0.988953 0.552175
vt 0.054800 0.577791
vt 0.054800 0.577791
vt 0.977067 0.806397
vt 0.977067 0.806397
vt 0.064697 0.794257
vt 0.977067 0.806397
vt 0.923296 0.432828
vt 0.923296 0.432828
vt 0.923296 0.432828
vt 0.923296 0.432828
vt 0.000000 0.411969
vt 0.876188 0.676213
vt 0.876188 0.676213
vt 0.876188 0.676213
vt 0.876188 0.676213
vt 0.876188 0.676213
vt 0.834374 0.411911
vt 0.834374 0.411911
vt 0.834374 0.411911
vt 0.834374 0.411911
vt 0.228011 0.826851
vt 0.012344 0.802285
vt 0.233705 0.673163
vt 0.232078 0.341103
vt 0.239023 0.507991
vt 0.011092 0.481709
vt 0.454690 0.532557
vt 0.226223 0.049531
vt 0.223308 0.190222
vt 0.007063 0.174129
vt 0.716314 0.790468
vt 0.707238 0.930392
vt 0.440296 0.837654
vt 0.987750 0.077590
vt 0.716592 0.110401
vt 0.713626 0.032812
vt 0.991628 0.655019
vt 0.724686 0.562281
vt 0.285582 0.095256
vt 0.145014 0.135814
vt 0.141075 0.040557
vt 0.144907 0.969774
vt 0.000000 0.874549
vt 0.144907 0.844323
vt 0.146609 0.256602
vt 0.002101 0.201903
vt 0.711352 0.786747
vt 0.504337 0.921217
vt 0.496829 0.805078
vt 0.805165 0.044804
vt 0.797453 0.202063
vt 0.721310 0.157260
vt 0.851922 0.774567
vt 0.859430 0.890706
vt 0.851922 0.627790
vt 0.708721 0.492564
vt 0.856799 0.449745
vt 1.000000 0.731749
vt 0.999083 0.471972
vt 0.855882 0.336746
vt 0.939014 0.939263
vt 0.798444 0.951443
vt 0.501515 0.301257
vt 0.001781 0.224175
vt 0.500267 0.130703
vt 0.505586 0.978720
vt 0.505586 0.833825
vt 1.000000 0.813459
vt 0.500263 0.210158
vt 0.001381 0.148888
vt 0.500573 0.102838
vt 0.999728 0.331077
vt 0.500536 0.377128
vt 0.503107 0.860779
vt 0.506122 0.957323
vt 0.009229 0.900172
vt 1.000000 0.101868
vt 0.507060 0.141374
vt 0.507060 0.039506
vt 0.487964 0.598419
vt 0.490524 0.714992
vt 0.003653 0.687055
vt 0.739140 0.387749
vt 0.762564 0.486935
vt 0.810951 0.312726
vt 0.625513 0.578309
vt 0.683474 0.709139
vt 0.748714 0.692788
vt 0.617401 0.425426
vt 0.552162 0.441777
vt 0.625513 0.578309
vt 0.500191 0.923049
vt 0.000607 0.801142
vt 0.500416 0.789506
vt 0.498790 0.641864
vt 0.998373 0.763771
vt 0.552162 0.441777
vt 0.427722 0.424091
vt 0.435833 0.576974
vt 0.430998 0.201631
vt 0.314778 0.239407
vt 0.427830 0.326669
vt 0.215601 0.395769
vt 0.215494 0.493191
vt 0.311501 0.461867
vt 0.215494 0.493191
vt 0.087197 0.502442
vt 0.183096 0.568540
vt 0.186033 0.176988
vt 0.182864 0.302026
vt 0.314778 0.239407
vt 0.224831 0.714508
vt 0.059748 0.686024
vt 0.229780 0.822741
vt 0.086857 0.333350
vt 0.215601 0.395769
vt 0.182864 0.302026
vt 0.027060 0.325788
vt 0.027400 0.494880
vt 0.054460 0.408699
vt 0.841431 0.749916
vt 0.891871 0.815008
vt 0.926627 0.741305
vt 0.810951 0.312726
vt 0.878835 0.422370
vt 0.855411 0.323185
vt 0.600769 0.837422
vt 0.685965 0.828811
vt 0.891871 0.815008
vt 0.855281 0.544062
vt 0.762564 0.486935
vt 0.783470 0.619086
vt 0.783470 0.619086
vt 0.748714 0.692788
vt 0.841431 0.749916
vt 0.218935 0.966775
vt 0.451239 0.216504
vt 0.725362 0.261282
vt 0.730004 0.397109
vt 0.995358 0.291006
vt 0.290297 0.762983
vt 0.145391 0.667758
vt 0.147239 0.454555
vt 0.001848 0.535895
vt 0.290151 0.388465
vt 0.497313 0.628513
vt 0.501559 0.252516
vt 0.502189 0.450468
vt 0.481752 0.033884
vt 0.485690 0.129140
vt 0.701620 0.951443
vt 0.487097 0.969774
vt 0.697728 0.191143
vt 0.705441 0.033884
vt 0.939737 0.224290
vt 0.940654 0.072037
vt 0.999083 0.206719
vt 0.499888 0.505429
vt 0.001931 0.531164
vt 0.500266 0.026811
vt 1.000000 0.103893
vt 0.511440 0.367560
vt 0.017004 0.229192
vt 0.505564 0.222546
vt 0.505564 0.083904
vt 1.000000 0.222272
vt 0.998373 0.411957
vt 0.500000 0.711298
vt 0.005586 0.876558
vt 0.011440 0.564119
vt 0.511440 0.521386
vt 1.000000 0.514739
vt 0.012483 0.421665
vt 0.511936 0.238293
vt 0.500547 0.387109
vt 0.987418 0.415046
vt 0.500585 0.695942
vt 0.500216 0.862584
vt 0.000802 0.753163
vt 0.500585 0.542284
vt 0.001121 0.421365
vt 0.309727 0.020784
vt 0.808609 0.082054
vt 1.000000 0.651705
vt 0.018996 0.175930
vt 0.987418 0.772143
vt 0.926627 0.741305
vt 0.983010 0.679286
vt 0.932571 0.614194
vt 0.956125 0.492502
vt 0.899742 0.554521
vt 0.552737 0.163955
vt 0.430998 0.201631
vt 0.665788 0.251217
vt 0.600769 0.837422
vt 0.683474 0.709139
vt 0.477568 0.722943
vt 0.739140 0.387749
vt 0.665788 0.251217
vt 0.617401 0.425426
vt 0.477568 0.722943
vt 0.510175 0.649849
vt 0.427470 0.778131
vt 0.435833 0.576974
vt 0.385735 0.632163
vt 0.510175 0.649849
vt 0.427722 0.424091
vt 0.427830 0.326669
vt 0.311501 0.461867
vt 0.385735 0.632163
vt 0.353128 0.705257
vt 0.427470 0.778131
vt 0.353128 0.705257
vt 0.183096 0.568540
vt 0.224831 0.714508
vt 0.086857 0.333350
vt 0.054460 0.408699
vt 0.087197 0.502442
vt 0.965726 0.112993
vt 0.871858 0.126296
vt 0.881395 0.200238
vt 0.949280 0.309881
vt 0.881395 0.200238
vt 0.855411 0.323185
vt 0.878835 0.422370
vt 0.855281 0.544062
vt 0.899742 0.554521
vt 0.338692 0.762290
vt 0.230858 0.750007
vt 0.341539 0.685446
vt 0.117330 0.891411
vt 0.009497 0.879128
vt 0.120177 0.814568
vt 0.123024 0.737724
vt 0.015191 0.725441
vt 0.125871 0.660880
vt 0.118112 0.327962
vt 0.121585 0.411406
vt 0.007620 0.398265
vt 0.346043 0.354244
vt 0.349516 0.437688
vt 0.235551 0.424547
vt 0.125058 0.494850
vt 0.128530 0.578294
vt 0.014565 0.565153
vt 0.457350 0.449971
vt 0.346857 0.520274
vt 0.452031 0.615143
vt 0.344198 0.602860
vt 0.236364 0.590577
vt 0.118101 0.041484
vt 0.116643 0.111830
vt 0.008520 0.103784
vt 0.334346 0.057577
vt 0.332888 0.127922
vt 0.224766 0.119876
vt 0.115185 0.182175
vt 0.113727 0.252521
vt 0.005605 0.244475
vt 0.582843 0.744098
vt 0.578305 0.814061
vt 0.444834 0.767692
vt 0.849785 0.836837
vt 0.845246 0.906799
vt 0.711776 0.860430
vt 0.573767 0.884023
vt 0.569229 0.953985
vt 0.435758 0.907616
vt 0.986267 0.038795
vt 0.850688 0.055201
vt 0.849205 0.016406
vt 0.989233 0.116385
vt 0.853654 0.132790
vt 0.852171 0.093995
vt 0.715109 0.071606
vt 0.579531 0.088012
vt 0.578047 0.049217
vt 0.995814 0.540925
vt 0.858157 0.608650
vt 0.862343 0.494556
vt 0.987442 0.769112
vt 0.853971 0.722743
vt 0.720500 0.676374
vt 0.587029 0.630005
vt 0.283613 0.047628
vt 0.213329 0.067907
vt 0.211359 0.020279
vt 0.287552 0.142885
vt 0.217267 0.163163
vt 0.215298 0.115535
vt 0.143045 0.088185
vt 0.072760 0.108464
vt 0.070791 0.060836
vt 0.217360 0.954661
vt 0.144907 0.907049
vt 0.217360 0.891936
vt 0.072453 0.984887
vt 0.000000 0.937275
vt 0.072453 0.922162
vt 0.072453 0.859436
vt 0.000000 0.811824
vt 0.072453 0.796711
vt 0.073558 0.168858
vt 0.001304 0.141509
vt 0.218065 0.223558
vt 0.145811 0.196208
vt 0.074355 0.229253
vt 0.075152 0.289647
vt 0.002899 0.262297
vt 0.707598 0.728678
vt 0.604090 0.795913
vt 0.600336 0.737843
vt 0.715106 0.844816
vt 0.611598 0.912051
vt 0.607844 0.853982
vt 0.500583 0.863148
vt 0.397075 0.930383
vt 0.393321 0.872313
vt 0.767094 0.022402
vt 0.763238 0.101032
vt 0.725166 0.078630
vt 0.843237 0.067206
vt 0.839381 0.145835
vt 0.801309 0.123433
vt 0.759381 0.179661
vt 0.755525 0.258291
vt 0.717454 0.235889
vt 0.777883 0.722588
vt 0.781637 0.780657
vt 0.925961 0.826547
vt 0.929715 0.884616
vt 0.855676 0.832637
vt 0.785391 0.838726
vt 0.789145 0.896796
vt 0.925961 0.606381
vt 0.854360 0.538768
vt 0.928399 0.517359
vt 0.777883 0.649199
vt 0.706282 0.581586
vt 0.780321 0.560177
vt 0.782760 0.471155
vt 0.711159 0.403541
vt 0.785198 0.382132
vt 1.000000 0.658360
vt 0.925961 0.679769
vt 1.000000 0.805137
vt 0.925961 0.753158
vt 0.851922 0.701179
vt 0.998625 0.415472
vt 0.927482 0.404359
vt 0.927024 0.347859
vt 0.999542 0.528472
vt 0.927941 0.460859
vt 0.856340 0.393245
vt 0.784740 0.325632
vt 0.969507 0.908894
vt 0.899222 0.914984
vt 0.908521 0.969631
vt 0.838236 0.975721
vt 0.868729 0.945353
vt 0.828937 0.921074
vt 0.758652 0.927164
vt 0.750757 0.254521
vt 0.500891 0.215980
vt 0.750133 0.169244
vt 0.252272 0.347993
vt 0.002406 0.309453
vt 0.251648 0.262716
vt 0.251024 0.177439
vt 0.001157 0.138898
vt 0.250400 0.092162
vt 0.752793 0.968537
vt 0.752793 0.896089
vt 1.000000 0.885906
vt 0.258379 0.988903
vt 0.258379 0.916455
vt 0.505586 0.906272
vt 0.752793 0.823642
vt 0.752793 0.751195
vt 1.000000 0.741012
vt 0.749859 0.187133
vt 0.500418 0.156498
vt 0.750014 0.133473
vt 0.250667 0.233183
vt 0.001226 0.202548
vt 0.250822 0.179523
vt 0.250977 0.125863
vt 0.001536 0.095228
vt 0.251132 0.072203
vt 0.999591 0.247593
vt 0.749995 0.270618
vt 0.999864 0.414562
vt 0.750268 0.437587
vt 0.750132 0.354102
vt 0.500400 0.293643
vt 0.250804 0.316668
vt 0.254660 0.832203
vt 0.256168 0.880475
vt 0.007721 0.851900
vt 0.751553 0.889354
vt 0.753061 0.937626
vt 0.504614 0.909051
vt 0.257675 0.928747
vt 0.259183 0.977019
vt 0.010736 0.948444
vt 1.000000 0.050934
vt 0.753530 0.070687
vt 0.753530 0.019753
vt 1.000000 0.152802
vt 0.753530 0.172555
vt 0.753530 0.121621
vt 0.507060 0.090440
vt 0.260589 0.110193
vt 0.260589 0.059259
vt 0.244529 0.584450
vt 0.245809 0.642737
vt 0.002373 0.628768
vt 0.731400 0.612388
vt 0.732680 0.670674
vt 0.489244 0.656706
vt 0.247089 0.701023
vt 0.248369 0.759310
vt 0.004933 0.745341
vt 0.763333 0.300645
vt 0.775045 0.350238
vt 0.799239 0.263134
vt 0.714946 0.474854
vt 0.726658 0.524446
vt 0.750852 0.437342
vt 0.786757 0.399830
vt 0.798469 0.449423
vt 0.822662 0.362319
vt 0.658133 0.570134
vt 0.687113 0.635549
vt 0.719733 0.627373
vt 0.592893 0.586485
vt 0.621873 0.651900
vt 0.654493 0.643724
vt 0.716094 0.700964
vt 0.745074 0.766379
vt 0.777694 0.758203
vt 0.654077 0.493692
vt 0.621457 0.501867
vt 0.658133 0.570134
vt 0.580726 0.357160
vt 0.548106 0.365335
vt 0.584782 0.433601
vt 0.588837 0.510043
vt 0.556217 0.518218
vt 0.592893 0.586485
vt 0.750095 0.917231
vt 0.500303 0.856277
vt 0.750208 0.850460
vt 0.250286 0.928867
vt 0.000494 0.867913
vt 0.250399 0.862095
vt 0.250511 0.795324
vt 0.000719 0.734370
vt 0.250624 0.728553
vt 0.749395 0.776639
vt 0.999187 0.837592
vt 0.249811 0.654732
vt 0.499603 0.715685
vt 0.748581 0.702818
vt 0.747768 0.628997
vt 0.997560 0.689950
vt 0.556217 0.518218
vt 0.493997 0.509376
vt 0.498053 0.585817
vt 0.548106 0.365335
vt 0.485886 0.356492
vt 0.489942 0.432934
vt 0.431777 0.500533
vt 0.369557 0.491690
vt 0.373613 0.568131
vt 0.487524 0.245262
vt 0.429414 0.264150
vt 0.485940 0.307781
vt 0.374472 0.158000
vt 0.316362 0.176888
vt 0.372888 0.220519
vt 0.371304 0.283038
vt 0.313193 0.301926
vt 0.369719 0.345557
vt 0.263605 0.380107
vt 0.263551 0.428818
vt 0.311555 0.413156
vt 0.167598 0.411431
vt 0.167544 0.460142
vt 0.215547 0.444480
vt 0.263497 0.477529
vt 0.263443 0.526240
vt 0.311447 0.510578
vt 0.263443 0.526240
vt 0.199295 0.530865
vt 0.247245 0.563914
vt 0.167544 0.460142
vt 0.103395 0.464768
vt 0.151345 0.497817
vt 0.135147 0.535491
vt 0.070998 0.540117
vt 0.118948 0.573166
vt 0.251990 0.145679
vt 0.250405 0.208198
vt 0.316362 0.176888
vt 0.120076 0.208298
vt 0.118492 0.270817
vt 0.184449 0.239507
vt 0.248821 0.270717
vt 0.247237 0.333236
vt 0.313193 0.301926
vt 0.309847 0.782867
vt 0.227305 0.768625
vt 0.312321 0.836983
vt 0.139815 0.646150
vt 0.057274 0.631908
vt 0.142290 0.700266
vt 0.144764 0.754383
vt 0.062223 0.740140
vt 0.147238 0.808499
vt 0.070488 0.286479
vt 0.134861 0.317688
vt 0.118492 0.270817
vt 0.103225 0.380222
vt 0.167598 0.411431
vt 0.151229 0.364560
vt 0.199233 0.348898
vt 0.263605 0.380107
vt 0.247237 0.333236
vt 0.040590 0.282698
vt 0.040760 0.367244
vt 0.054290 0.324154
vt 0.013530 0.368879
vt 0.013700 0.453425
vt 0.027230 0.410334
vt 0.040930 0.451790
vt 0.041100 0.536336
vt 0.054630 0.493245
vt 0.858810 0.713065
vt 0.884029 0.745610
vt 0.901408 0.708759
vt 0.824053 0.786767
vt 0.849273 0.819313
vt 0.866651 0.782462
vt 0.909249 0.778156
vt 0.934469 0.810702
vt 0.951847 0.773851
vt 0.799239 0.263134
vt 0.833181 0.317955
vt 0.821469 0.268363
vt 0.822662 0.362319
vt 0.856605 0.417140
vt 0.844893 0.367548
vt 0.867123 0.372777
vt 0.901065 0.427599
vt 0.889354 0.378006
vt 0.703722 0.830520
vt 0.746320 0.826215
vt 0.849273 0.819313
vt 0.497816 0.844324
vt 0.540414 0.840018
vt 0.643367 0.833117
vt 0.788918 0.821909
vt 0.831516 0.817604
vt 0.934469 0.810702
vt 0.865734 0.610138
vt 0.819376 0.581574
vt 0.829829 0.647649
vt 0.844828 0.477987
vt 0.798469 0.449423
vt 0.808922 0.515498
vt 0.773017 0.553010
vt 0.726658 0.524446
vt 0.737112 0.590522
vt 0.829829 0.647649
vt 0.812451 0.684501
vt 0.858810 0.713065
vt 0.737112 0.590522
vt 0.719733 0.627373
vt 0.766092 0.655937
vt 0.795072 0.721352
vt 0.777694 0.758203
vt 0.824053 0.786767
vt 0.334153 0.832252
vt 0.325077 0.972177
vt 0.329615 0.902214
vt 0.223473 0.896813
vt 0.112792 0.961374
vt 0.227693 0.265662
vt 0.446854 0.141064
vt 0.337273 0.203363
vt 0.341658 0.278803
vt 0.455624 0.291945
vt 0.583916 0.163453
vt 0.858039 0.208231
vt 0.720977 0.185842
vt 0.588301 0.238893
vt 0.592686 0.314334
vt 0.595007 0.382247
vt 0.592347 0.464833
vt 0.865002 0.411970
vt 0.727345 0.479695
vt 0.589688 0.547419
vt 0.727683 0.329195
vt 0.993037 0.223093
vt 0.860360 0.276144
vt 0.862681 0.344057
vt 0.997679 0.358919
vt 0.290539 0.674700
vt 0.217844 0.715371
vt 0.218086 0.627088
vt 0.290056 0.851266
vt 0.217602 0.803653
vt 0.145149 0.756041
vt 0.072695 0.708428
vt 0.075467 0.388623
vt 0.074543 0.495225
vt 0.002772 0.429293
vt 0.219010 0.520486
vt 0.146315 0.561156
vt 0.073619 0.601827
vt 0.000924 0.642497
vt 0.146924 0.355578
vt 0.289836 0.289489
vt 0.218380 0.322534
vt 0.218695 0.421510
vt 0.290466 0.487441
vt 0.394047 0.607465
vt 0.393805 0.695748
vt 0.600578 0.649561
vt 0.497071 0.716796
vt 0.393563 0.784031
vt 0.395540 0.221514
vt 0.395855 0.320491
vt 0.607578 0.283518
vt 0.607893 0.382494
vt 0.501874 0.351492
vt 0.396170 0.419467
vt 0.396485 0.518443
vt 0.381698 0.016942
vt 0.383667 0.064570
vt 0.581806 0.050826
vt 0.583775 0.098454
vt 0.483721 0.081512
vt 0.385636 0.112198
vt 0.387606 0.159827
vt 0.495717 0.945496
vt 0.388455 0.954661
vt 0.710240 0.927164
vt 0.602979 0.936330
vt 0.594359 0.960609
vt 0.693001 0.975721
vt 0.585739 0.984887
vt 0.689794 0.129455
vt 0.591709 0.160142
vt 0.705663 0.252831
vt 0.599644 0.221830
vt 0.493625 0.190828
vt 0.605455 0.471516
vt 0.603017 0.560538
vt 0.499751 0.539491
vt 0.693650 0.050826
vt 0.701585 0.112514
vt 0.717232 0.016942
vt 0.713375 0.095572
vt 0.709519 0.174201
vt 0.910523 0.156948
vt 0.868595 0.213176
vt 0.968952 0.291631
vt 0.897809 0.280518
vt 0.826667 0.269404
vt 0.910981 0.080822
vt 0.940196 0.148163
vt 0.970327 0.063252
vt 0.999542 0.130593
vt 0.969869 0.139378
vt 0.969410 0.215504
vt 0.998625 0.282846
vt 0.251459 0.450079
vt 0.250910 0.518297
vt 0.002480 0.462947
vt 0.748318 0.560779
vt 0.499339 0.573647
vt 0.250360 0.586514
vt 0.001382 0.599382
vt 0.250400 0.040216
vt 0.500266 0.078757
vt 0.750133 0.013405
vt 1.000000 0.051946
vt 0.750133 0.065352
vt 0.750133 0.117298
vt 1.000000 0.155839
vt 0.755720 0.364237
vt 0.508502 0.295053
vt 0.752782 0.291729
vt 0.267160 0.370884
vt 0.019942 0.301700
vt 0.264222 0.298376
vt 0.261284 0.225869
vt 0.014066 0.156685
vt 0.258345 0.153362
vt 0.752782 0.222409
vt 1.000000 0.291593
vt 0.258345 0.084041
vt 0.505564 0.153225
vt 0.752782 0.153088
vt 0.752782 0.083768
vt 1.000000 0.152952
vt 0.999187 0.309871
vt 0.749944 0.356607
vt 0.997560 0.514043
vt 0.749131 0.458693
vt 0.500702 0.403343
vt 0.250000 0.732665
vt 0.252793 0.793928
vt 0.002793 0.815295
vt 0.750000 0.689931
vt 0.502793 0.772562
vt 0.255586 0.855192
vt 0.008379 0.937822
vt 0.005720 0.659075
vt 0.255720 0.637709
vt 0.017160 0.469163
vt 0.267160 0.447797
vt 0.261440 0.542753
vt 0.505720 0.616342
vt 0.755720 0.594975
vt 0.511440 0.444473
vt 1.000000 0.437826
vt 0.755720 0.441150
vt 0.755720 0.518063
vt 1.000000 0.591652
vt 0.006788 0.496073
vt 0.256515 0.404387
vt 0.250820 0.478795
vt 0.018178 0.347257
vt 0.267904 0.255571
vt 0.262210 0.329979
vt 0.506241 0.312701
vt 0.755968 0.221015
vt 0.750273 0.295423
vt 0.494255 0.492764
vt 0.993709 0.309392
vt 0.743982 0.401078
vt 0.737691 0.506733
vt 0.981126 0.520701
vt 0.250878 0.641232
vt 0.250694 0.724553
vt 0.000986 0.669842
vt 0.750293 0.750653
vt 0.750108 0.833974
vt 0.500401 0.779263
vt 0.250509 0.807873
vt 0.250325 0.891194
vt 0.000617 0.836483
vt 0.250828 0.399246
vt 0.001096 0.338787
vt 0.750293 0.520165
vt 0.500561 0.459706
vt 0.250853 0.481824
vt 0.250878 0.564403
vt 0.001146 0.503943
vt 0.155709 0.031176
vt 0.405150 0.061811
vt 0.463745 0.010392
vt 0.713186 0.041027
vt 0.559168 0.051419
vt 0.654591 0.092446
vt 0.904032 0.123081
vt 0.500585 0.619113
vt 1.000000 0.574876
vt 0.750293 0.596995
vt 0.750293 0.673824
vt 1.000000 0.728534
vt 0.263028 0.158652
vt 0.016557 0.127471
vt 0.509498 0.189833
vt 0.265466 0.207111
vt 0.021434 0.224389
vt 0.496816 0.787886
vt 0.981126 0.699250
vt 0.738971 0.743568
vt 0.745262 0.816461
vt 0.993709 0.845036
vt 0.901408 0.708759
vt 0.929599 0.677750
vt 0.904379 0.645204
vt 0.951847 0.773851
vt 0.980038 0.742841
vt 0.954819 0.710295
vt 0.957790 0.646740
vt 0.985982 0.615730
vt 0.960762 0.583185
vt 0.916156 0.584357
vt 0.887965 0.615367
vt 0.972539 0.522338
vt 0.944348 0.553348
vt 0.927933 0.523511
vt 0.939710 0.462665
vt 0.911519 0.493675
vt 0.670132 0.188748
vt 0.609263 0.207586
vt 0.726658 0.232379
vt 0.435342 0.139162
vt 0.374472 0.158000
vt 0.491867 0.182793
vt 0.548393 0.226424
vt 0.487524 0.245262
vt 0.604919 0.270055
vt 0.497816 0.844324
vt 0.539168 0.780182
vt 0.436215 0.787084
vt 0.703722 0.830520
vt 0.745074 0.766379
vt 0.642121 0.773281
vt 0.580521 0.716041
vt 0.621873 0.651900
vt 0.518920 0.658801
vt 0.714946 0.474854
vt 0.678271 0.406588
vt 0.654077 0.493692
vt 0.763333 0.300645
vt 0.726658 0.232379
vt 0.702464 0.319483
vt 0.641595 0.338322
vt 0.604919 0.270055
vt 0.580726 0.357160
vt 0.436215 0.787084
vt 0.452519 0.750537
vt 0.411166 0.814678
vt 0.518920 0.658801
vt 0.535224 0.622254
vt 0.493871 0.686396
vt 0.468822 0.713990
vt 0.485126 0.677443
vt 0.443773 0.741584
vt 0.498053 0.585817
vt 0.473004 0.613411
vt 0.535224 0.622254
vt 0.373613 0.568131
vt 0.348564 0.595726
vt 0.410784 0.604569
vt 0.447955 0.641006
vt 0.422906 0.668600
vt 0.485126 0.677443
vt 0.369557 0.491690
vt 0.369611 0.442979
vt 0.311447 0.510578
vt 0.485886 0.356492
vt 0.485940 0.307781
vt 0.427776 0.375380
vt 0.369665 0.394268
vt 0.369719 0.345557
vt 0.311555 0.413156
vt 0.422906 0.668600
vt 0.406603 0.705147
vt 0.443773 0.741584
vt 0.348564 0.595726
vt 0.332261 0.632273
vt 0.369432 0.668710
vt 0.390299 0.741694
vt 0.373995 0.778241
vt 0.411166 0.814678
vt 0.373995 0.778241
vt 0.288980 0.709883
vt 0.309847 0.782867
vt 0.332261 0.632273
vt 0.247245 0.563914
vt 0.268112 0.636899
vt 0.203964 0.641524
vt 0.118948 0.573166
vt 0.139815 0.646150
vt 0.103225 0.380222
vt 0.087027 0.417896
vt 0.103395 0.464768
vt 0.070488 0.286479
vt 0.054290 0.324154
vt 0.070658 0.371025
vt 0.070828 0.455571
vt 0.054630 0.493245
vt 0.070998 0.540117
vt 0.970495 0.149964
vt 0.923561 0.156615
vt 0.928330 0.193586
vt 0.960957 0.076022
vt 0.914023 0.082674
vt 0.918792 0.119645
vt 0.876627 0.163267
vt 0.829692 0.169919
vt 0.834461 0.206889
vt 0.936288 0.371355
vt 0.902346 0.316533
vt 0.889354 0.378006
vt 0.962272 0.248408
vt 0.928330 0.193586
vt 0.915338 0.255060
vt 0.868403 0.261711
vt 0.834461 0.206889
vt 0.821469 0.268363
vt 0.901065 0.427599
vt 0.889288 0.488445
vt 0.911519 0.493675
vt 0.856605 0.417140
vt 0.844828 0.477987
vt 0.867058 0.483216
vt 0.877511 0.549292
vt 0.865734 0.610138
vt 0.887965 0.615367
f 5/5 361/361 363/363
f 361/361 154/154 362/362
f 363/363 362/362 156/156
f 361/361 362/362 363/363
f 154/154 364/364 366/366
f 364/364 1/1 365/365
f 366/366 365/365 155/155
f 364/364 365/365 366/366
f 156/156 367/367 369/369
f 367/367 155/155 368/368
f 369/369 368/368 3/3
f 367/367 368/368 369/369
f 154/154 366/366 362/362
f 366/366 155/155 367/367
f 362/362 367/367 156/156
f 366/366 367/367 362/362
f 4/4 370/370 372/372
f 370/370 157/157 371/371
f 372/372 371/371 159/159
f 370/370 371/371 372/372
f 157/157 373/373 375/375
f 373/373 6/6 374/374
f 375/375 374/374 158/158
f 373/373 374/374 375/375
f 159/159 376/376 378/378
f 376/376 158/158 377/377
f 378/378 377/377 3/3
f 376/376 377/377 378/378
f 157/157 375/375 371/371
f 375/375 158/158 376/376
f 371/371 376/376 159/159
f 375/375 376/376 371/371
f 6/6 379/379 374/374
f 379/379 160/160 380/380
f 374/374 380/380 158/158
f 379/379 380/380 374/374
f 160/160 381/381 382/382
f 381/381 5/5 363/363
f 382/382 363/363 156/156
f 381/381 363/363 382/382
f 158/158 383/383 377/377
f 383/383 156/156 369/369
f 377/377 369/369 3/3
f 383/383 369/369 377/377
f 160/160 382/382 380/380
f 382/382 156/156 383/383
f 380/380 383/383 158/158
f 382/382 383/383 380/380
f 2/2 384/384 386/386
f 384/384 161/161 385/385
f 386/386 385/385 163/163
f 384/384 385/385 386/386
f 161/161 387/387 389/389
f 387/387 8/8 388/388
f 389/389 388/388 162/162
f 387/387 388/388 389/389
f 163/163 390/390 392/392
f 390/390 162/162 391/391
f 392/392 391/391 4/4
f 390/390 391/391 392/392
f 161/161 389/389 385/385
f 389/389 162/162 390/390
f 385/385 390/390 163/163
f 389/389 390/390 385/385
f 5/5 393/393 395/395
f 393/393 164/164 394/394
f 395/395 394/394 166/166
f 393/393 394/394 395/395
f 164/164 396/396 398/398
f 396/396 9/9 397/397
f 398/398 397/397 165/165
f 396/396 397/397 398/398
f 166/166 399/399 401/401
f 399/399 165/165 400/400
f 401/401 400/400 7/7
f 399/399 400/400 401/401
f 164/164 398/398 394/394
f 398/398 165/165 399/399
f 394/394 399/399 166/166
f 398/398 399/399 394/394
f 10/10 402/402 404/404
f 402/402 167/167 403/403
f 404/404 403/403 169/169
f 402/402 403/403 404/404
f 167/167 405/405 407/407
f 405/405 12/12 406/406
f 407/407 406/406 168/168
f 405/405 406/406 407/407
f 169/169 408/408 410/410
f 408/408 168/168 409/409
f 410/410 409/409 8/8
f 408/408 409/409 410/410
f 167/167 407/407 403/403
f 407/407 168/168 408/408
f 403/403 408/408 169/169
f 407/407 408/408 403/403
f 11/11 411/411 413/413
f 411/411 170/170 412/412
f 413/413 412/412 171/171
f 411/411 412/412 413/413
f 170/170 414/414 415/415
f 414/414 9/9 396/396
f 415/415 396/396 164/164
f 414/414 396/396 415/415
f 171/171 416/416 417/417
f 416/416 164/164 393/393
f 417/417 393/393 5/5
f 416/416 393/393 417/417
f 170/170 415/415 412/412
f 415/415 164/164 416/416
f 412/412 416/416 171/171
f 415/415 416/416 412/412
f 19/19 418/418 420/420
f 418/418 172/172 419/419
f 420/420 419/419 174/174
f 418/418 419/419 420/420
f 172/172 421/421 423/423
f 421/421 18/18 422/422
f 423/423 422/422 173/173
f 421/421 422/422 423/423
f 174/174 424/424 426/426
f 424/424 173/173 425/425
f 426/426 425/425 14/14
f 424/424 425/425 426/426
f 172/172 423/423 419/419
f 423/423 173/173 424/424
f 419/419 424/424 174/174
f 423/423 424/424 419/419
f 20/20 427/427 429/429
f 427/427 175/175 428/428
f 429/429 428/428 177/177
f 427/427 428/428 429/429
f 175/175 430/430 432/432
f 430/430 15/15 431/431
f 432/432 431/431 176/176
f 430/430 431/431 432/432
f 177/177 433/433 435/435
f 433/433 176/176 434/434
f 435/435 434/434 13/13
f 433/433 434/434 435/435
f 175/175 432/432 428/428
f 432/432 176/176 433/433
f 428/428 433/433 177/177
f 432/432 433/433 428/428
f 14/14 425/425 437/437
f 425/425 173/173 436/436
f 437/437 436/436 179/179
f 425/425 436/436 437/437
f 173/173 422/422 439/439
f 422/422 18/18 438/438
f 439/439 438/438 178/178
f 422/422 438/438 439/439
f 179/179 440/440 442/442
f 440/440 178/178 441/441
f 442/442 441/441 16/16
f 440/440 441/441 442/442
f 173/173 439/439 436/436
f 439/439 178/178 440/440
f 436/436 440/440 179/179
f 439/439 440/440 436/436
f 21/21 443/443 445/445
f 443/443 180/180 444/444
f 445/445 444/444 182/182
f 443/443 444/444 445/445
f 180/180 446/446 448/448
f 446/446 25/25 447/447
f 448/448 447/447 181/181
f 446/446 447/447 448/448
f 182/182 449/449 451/451
f 449/449 181/181 450/450
f 451/451 450/450 20/20
f 449/449 450/450 451/451
f 180/180 448/448 444/444
f 448/448 181/181 449/449
f 444/444 449/449 182/182
f 448/448 449/449 444/444
f 26/26 452/452 454/454
f 452/452 183/183 453/453
f 454/454 453/453 185/185
f 452/452 453/453 454/454
f 183/183 455/455 457/457
f 455/455 28/28 456/456
f 457/457 456/456 184/184
f 455/455 456/456 457/457
f 185/185 458/458 460/460
f 458/458 184/184 459/459
f 460/460 459/459 22/22
f 458/458 459/459 460/460
f 183/183 457/457 453/453
f 457/457 184/184 458/458
f 453/453 458/458 185/185
f 457/457 458/458 453/453
f 21/21 461/461 443/443
f 461/461 186/186 462/462
f 443/443 462/462 180/180
f 461/461 462/462 443/443
f 186/186 463/463 465/465
f 463/463 32/32 464/464
f 465/465 464/464 187/187
f 463/463 464/464 465/465
f 180/180 466/466 446/446
f 466/466 187/187 467/467
f 446/446 467/467 25/25
f 466/466 467/467 446/446
f 186/186 465/465 462/462
f 465/465 187/187 466/466
f 462/462 466/466 180/180
f 465/465 466/466 462/462
f 29/29 468/468 470/470
f 468/468 188/188 469/469
f 470/470 469/469 190/190
f 468/468 469/469 470/470
f 188/188 471/471 473/473
f 471/471 21/21 472/472
f 473/473 472/472 189/189
f 471/471 472/472 473/473
f 190/190 474/474 476/476
f 474/474 189/189 475/475
f 476/476 475/475 22/22
f 474/474 475/475 476/476
f 188/188 473/473 469/469
f 473/473 189/189 474/474
f 469/469 474/474 190/190
f 473/473 474/474 469/469
f 29/29 477/477 468/468
f 477/477 191/191 478/478
f 468/468 478/478 188/188
f 477/477 478/478 468/468
f 191/191 479/479 480/480
f 479/479 32/32 463/463
f 480/480 463/463 186/186
f 479/479 463/463 480/480
f 188/188 481/481 471/471
f 481/481 186/186 461/461
f 471/471 461/461 21/21
f 481/481 461/461 471/471
f 191/191 480/480 478/478
f 480/480 186/186 481/481
f 478/478 481/481 188/188
f 480/480 481/481 478/478
f 30/30 482/482 484/484
f 482/482 192/192 483/483
f 484/484 483/483 193/193
f 482/482 483/483 484/484
f 192/192 485/485 486/486
f 485/485 29/29 470/470
f 486/486 470/470 190/190
f 485/485 470/470 486/486
f 193/193 487/487 488/488
f 487/487 190/190 476/476
f 488/488 476/476 22/22
f 487/487 476/476 488/488
f 192/192 486/486 483/483
f 486/486 190/190 487/487
f 483/483 487/487 193/193
f 486/486 487/487 483/483
f 32/32 489/489 464/464
f 489/489 194/194 490/490
f 464/464 490/490 187/187
f 489/489 490/490 464/464
f 194/194 491/491 493/493
f 491/491 27/27 492/492
f 493/493 492/492 195/195
f 491/491 492/492 493/493
f 187/187 494/494 467/467
f 494/494 195/195 495/495
f 467/467 495/495 25/25
f 494/494 495/495 467/467
f 194/194 493/493 490/490
f 493/493 195/195 494/494
f 490/490 494/494 187/187
f 493/493 494/494 490/490
f 40/40 496/496 498/498
f 496/496 196/196 497/497
f 498/498 497/497 198/198
f 496/496 497/497 498/498
f 196/196 499/499 501/501
f 499/499 36/36 500/500
f 501/501 500/500 197/197
f 499/499 500/500 501/501
f 198/198 502/502 504/504
f 502/502 197/197 503/503
f 504/504 503/503 34/34
f 502/502 503/503 504/504
f 196/196 501/501 497/497
f 501/501 197/197 502/502
f 497/497 502/502 198/198
f 501/501 502/502 497/497
f 47/47 505/505 507/507
f 505/505 199/199 506/506
f 507/507 506/506 201/201
f 505/505 506/506 507/507
f 199/199 508/508 510/510
f 508/508 42/42 509/509
f 510/510 509/509 200/200
f 508/508 509/509 510/510
f 201/201 511/511 513/513
f 511/511 200/200 512/512
f 513/513 512/512 45/45
f 511/511 512/512 513/513
f 199/199 510/510 506/506
f 510/510 200/200 511/511
f 506/506 511/511 201/201
f 510/510 511/511 506/506
f 55/55 514/514 516/516
f 514/514 202/202 515/515
f 516/516 515/515 204/204
f 514/514 515/515 516/516
f 202/202 517/517 519/519
f 517/517 52/52 518/518
f 519/519 518/518 203/203
f 517/517 518/518 519/519
f 204/204 520/520 522/522
f 520/520 203/203 521/521
f 522/522 521/521 50/50
f 520/520 521/521 522/522
f 202/202 519/519 515/515
f 519/519 203/203 520/520
f 515/515 520/520 204/204
f 519/519 520/520 515/515
f 55/55 523/523 514/514
f 523/523 205/205 524/524
f 514/514 524/524 202/202
f 523/523 524/524 514/514
f 205/205 525/525 527/527
f 525/525 56/56 526/526
f 527/527 526/526 206/206
f 525/525 526/526 527/527
f 202/202 528/528 517/517
f 528/528 206/206 529/529
f 517/517 529/529 52/52
f 528/528 529/529 517/517
f 205/205 527/527 524/524
f 527/527 206/206 528/528
f 524/524 528/528 202/202
f 527/527 528/528 524/524
f 59/59 530/530 532/532
f 530/530 207/207 531/531
f 532/532 531/531 209/209
f 530/530 531/531 532/532
f 207/207 533/533 535/535
f 533/533 63/63 534/534
f 535/535 534/534 208/208
f 533/533 534/534 535/535
f 209/209 536/536 538/538
f 536/536 208/208 537/537
f 538/538 537/537 57/57
f 536/536 537/537 538/538
f 207/207 535/535 531/531
f 535/535 208/208 536/536
f 531/531 536/536 209/209
f 535/535 536/536 531/531
f 62/62 539/539 541/541
f 539/539 210/210 540/540
f 541/541 540/540 212/212
f 539/539 540/540 541/541
f 210/210 542/542 544/544
f 542/542 65/65 543/543
f 544/544 543/543 211/211
f 542/542 543/543 544/544
f 212/212 545/545 547/547
f 545/545 211/211 546/546
f 547/547 546/546 58/58
f 545/545 546/546 547/547
f 210/210 544/544 540/540
f 544/544 211/211 545/545
f 540/540 545/545 212/212
f 544/544 545/545 540/540
f 60/60 548/548 550/550
f 548/548 213/213 549/549
f 550/550 549/549 215/215
f 548/548 549/549 550/550
f 213/213 551/551 553/553
f 551/551 64/64 552/552
f 553/553 552/552 214/214
f 551/551 552/552 553/553
f 215/215 554/554 556/556
f 554/554 214/214 555/555
f 556/556 555/555 59/59
f 554/554 555/555 556/556
f 213/213 553/553 549/549
f 553/553 214/214 554/554
f 549/549 554/554 215/215
f 553/553 554/554 549/549
f 72/72 557/557 559/559
f 557/557 216/216 558/558
f 559/559 558/558 218/218
f 557/557 558/558 559/559
f 216/216 560/560 562/562
f 560/560 81/81 561/561
f 562/562 561/561 217/217
f 560/560 561/561 562/562
f 218/218 563/563 565/565
f 563/563 217/217 564/564
f 565/565 564/564 151/151
f 563/563 564/564 565/565
f 216/216 562/562 558/558
f 562/562 217/217 563/563
f 558/558 563/563 218/218
f 562/562 563/563 558/558
f 78/78 566/566 568/568
f 566/566 219/219 567/567
f 568/568 567/567 221/221
f 566/566 567/567 568/568
f 219/219 569/569 571/571
f 569/569 87/87 570/570
f 571/571 570/570 220/220
f 569/569 570/570 571/571
f 221/221 572/572 574/574
f 572/572 220/220 573/573
f 574/574 573/573 82/82
f 572/572 573/573 574/574
f 219/219 571/571 567/567
f 571/571 220/220 572/572
f 567/567 572/572 221/221
f 571/571 572/572 567/567
f 80/80 575/575 577/577
f 575/575 222/222 576/576
f 577/577 576/576 224/224
f 575/575 576/576 577/577
f 222/222 578/578 580/580
f 578/578 95/95 579/579
f 580/580 579/579 223/223
f 578/578 579/579 580/580
f 224/224 581/581 583/583
f 581/581 223/223 582/582
f 583/583 582/582 90/90
f 581/581 582/582 583/583
f 222/222 580/580 576/576
f 580/580 223/223 581/581
f 576/576 581/581 224/224
f 580/580 581/581 576/576
f 38/38 584/584 586/586
f 584/584 225/225 585/585
f 586/586 585/585 227/227
f 584/584 585/585 586/586
f 225/225 587/587 589/589
f 587/587 33/33 588/588
f 589/589 588/588 226/226
f 587/587 588/588 589/589
f 227/227 590/590 592/592
f 590/590 226/226 591/591
f 592/592 591/591 35/35
f 590/590 591/591 592/592
f 225/225 589/589 585/585
f 589/589 226/226 590/590
f 585/585 590/590 227/227
f 589/589 590/590 585/585
f 38/38 586/586 594/594
f 586/586 227/227 593/593
f 594/594 593/593 229/229
f 586/586 593/593 594/594
f 227/227 592/592 596/596
f 592/592 35/35 595/595
f 596/596 595/595 228/228
f 592/592 595/595 596/596
f 229/229 597/597 599/599
f 597/597 228/228 598/598
f 599/599 598/598 39/39
f 597/597 598/598 599/599
f 227/227 596/596 593/593
f 596/596 228/228 597/597
f 593/593 597/597 229/229
f 596/596 597/597 593/593
f 92/92 600/600 602/602
f 600/600 230/230 601/601
f 602/602 601/601 232/232
f 600/600 601/601 602/602
f 230/230 603/603 605/605
f 603/603 98/98 604/604
f 605/605 604/604 231/231
f 603/603 604/604 605/605
f 232/232 606/606 608/608
f 606/606 231/231 607/607
f 608/608 607/607 105/105
f 606/606 607/607 608/608
f 230/230 605/605 601/601
f 605/605 231/231 606/606
f 601/601 606/606 232/232
f 605/605 606/606 601/601
f 96/96 609/609 611/611
f 609/609 233/233 610/610
f 611/611 610/610 235/235
f 609/609 610/610 611/611
f 233/233 612/612 614/614
f 612/612 67/67 613/613
f 614/614 613/613 234/234
f 612/612 613/613 614/614
f 235/235 615/615 617/617
f 615/615 234/234 616/616
f 617/617 616/616 109/109
f 615/615 616/616 617/617
f 233/233 614/614 610/610
f 614/614 234/234 615/615
f 610/610 615/615 235/235
f 614/614 615/615 610/610
f 113/113 618/618 620/620
f 618/618 236/236 619/619
f 620/620 619/619 238/238
f 618/618 619/619 620/620
f 236/236 621/621 623/623
f 621/621 121/121 622/622
f 623/623 622/622 237/237
f 621/621 622/622 623/623
f 238/238 624/624 626/626
f 624/624 237/237 625/625
f 626/626 625/625 107/107
f 624/624 625/625 626/626
f 236/236 623/623 619/619
f 623/623 237/237 624/624
f 619/619 624/624 238/238
f 623/623 624/624 619/619
f 108/108 627/627 629/629
f 627/627 239/239 628/628
f 629/629 628/628 241/241
f 627/627 628/628 629/629
f 239/239 630/630 632/632
f 630/630 122/122 631/631
f 632/632 631/631 240/240
f 630/630 631/631 632/632
f 241/241 633/633 635/635
f 633/633 240/240 634/634
f 635/635 634/634 132/132
f 633/633 634/634 635/635
f 239/239 632/632 628/628
f 632/632 240/240 633/633
f 628/628 633/633 241/241
f 632/632 633/633 628/628
f 69/69 636/636 638/638
f 636/636 242/242 637/637
f 638/638 637/637 244/244
f 636/636 637/637 638/638
f 242/242 639/639 641/641
f 639/639 125/125 640/640
f 641/641 640/640 243/243
f 639/639 640/640 641/641
f 244/244 642/642 644/644
f 642/642 243/243 643/643
f 644/644 643/643 111/111
f 642/642 643/643 644/644
f 242/242 641/641 637/637
f 641/641 243/243 642/642
f 637/637 642/642 244/244
f 641/641 642/642 637/637
f 118/118 645/645 647/647
f 645/645 245/245 646/646
f 647/647 646/646 247/247
f 645/645 646/646 647/647
f 245/245 648/648 650/650
f 648/648 130/130 649/649
f 650/650 649/649 246/246
f 648/648 649/649 650/650
f 247/247 651/651 653/653
f 651/651 246/246 652/652
f 653/653 652/652 138/138
f 651/651 652/652 653/653
f 245/245 650/650 646/646
f 650/650 246/246 651/651
f 646/646 651/651 247/247
f 650/650 651/651 646/646
f 127/127 654/654 656/656
f 654/654 248/248 655/655
f 656/656 655/655 250/250
f 654/654 655/655 656/656
f 248/248 657/657 659/659
f 657/657 120/120 658/658
f 659/659 658/658 249/249
f 657/657 658/658 659/659
f 250/250 660/660 662/662
f 660/660 249/249 661/661
f 662/662 661/661 112/112
f 660/660 661/661 662/662
f 248/248 659/659 655/655
f 659/659 249/249 660/660
f 655/655 660/660 250/250
f 659/659 660/660 655/655
f 129/129 663/663 665/665
f 663/663 251/251 664/664
f 665/665 664/664 253/253
f 663/663 664/664 665/665
f 251/251 666/666 668/668
f 666/666 144/144 667/667
f 668/668 667/667 252/252
f 666/666 667/667 668/668
f 253/253 669/669 671/671
f 669/669 252/252 670/670
f 671/671 670/670 135/135
f 669/669 670/670 671/671
f 251/251 668/668 664/664
f 668/668 252/252 669/669
f 664/664 669/669 253/253
f 668/668 669/669 664/664
f 147/147 672/672 674/674
f 672/672 254/254 673/673
f 674/674 673/673 256/256
f 672/672 673/673 674/674
f 254/254 675/675 677/677
f 675/675 86/86 676/676
f 677/677 676/676 255/255
f 675/675 676/676 677/677
f 256/256 678/678 680/680
f 678/678 255/255 679/679
f 680/680 679/679 137/137
f 678/678 679/679 680/680
f 254/254 677/677 673/673
f 677/677 255/255 678/678
f 673/673 678/678 256/256
f 677/677 678/678 673/673
f 74/74 681/681 683/683
f 681/681 257/257 682/682
f 683/683 682/682 259/259
f 681/681 682/682 683/683
f 257/257 684/684 686/686
f 684/684 152/152 685/685
f 686/686 685/685 258/258
f 684/684 685/685 686/686
f 259/259 687/687 689/689
f 687/687 258/258 688/688
f 689/689 688/688 140/140
f 687/687 688/688 689/689
f 257/257 686/686 682/682
f 686/686 258/258 687/687
f 682/682 687/687 259/259
f 686/686 687/687 682/682
f 85/85 690/690 692/692
f 690/690 260/260 691/691
f 692/692 691/691 262/262
f 690/690 691/691 692/692
f 260/260 693/693 695/695
f 693/693 117/117 694/694
f 695/695 694/694 261/261
f 693/693 694/694 695/695
f 262/262 696/696 698/698
f 696/696 261/261 697/697
f 698/698 697/697 136/136
f 696/696 697/697 698/698
f 260/260 695/695 691/691
f 695/695 261/261 696/696
f 691/691 696/696 262/262
f 695/695 696/696 691/691
f 145/145 699/699 701/701
f 699/699 263/263 700/700
f 701/701 700/700 265/265
f 699/699 700/700 701/701
f 263/263 702/702 704/704
f 702/702 150/150 703/703
f 704/704 703/703 264/264
f 702/702 703/703 704/704
f 265/265 705/705 707/707
f 705/705 264/264 706/706
f 707/707 706/706 76/76
f 705/705 706/706 707/707
f 263/263 704/704 700/700
f 704/704 264/264 705/705
f 700/700 705/705 265/265
f 704/704 705/705 700/700
f 146/146 708/708 710/710
f 708/708 266/266 709/709
f 710/710 709/709 268/268
f 708/708 709/709 710/710
f 266/266 711/711 713/713
f 711/711 79/79 712/712
f 713/713 712/712 267/267
f 711/711 712/712 713/713
f 268/268 714/714 716/716
f 714/714 267/267 715/715
f 716/716 715/715 84/84
f 714/714 715/715 716/716
f 266/266 713/713 709/709
f 713/713 267/267 714/714
f 709/709 714/714 268/268
f 713/713 714/714 709/709
f 5/5 395/395 361/361
f 395/395 166/166 717/717
f 361/361 717/717 154/154
f 395/395 717/717 361/361
f 166/166 401/401 719/719
f 401/401 7/7 718/718
f 719/719 718/718 269/269
f 401/401 718/718 719/719
f 154/154 720/720 364/364
f 720/720 269/269 721/721
f 364/364 721/721 1/1
f 720/720 721/721 364/364
f 166/166 719/719 717/717
f 719/719 269/269 720/720
f 717/717 720/720 154/154
f 719/719 720/720 717/717
f 4/4 391/391 370/370
f 391/391 162/162 722/722
f 370/370 722/722 157/157
f 391/391 722/722 370/370
f 162/162 388/388 724/724
f 388/388 8/8 723/723
f 724/724 723/723 270/270
f 388/388 723/723 724/724
f 157/157 725/725 373/373
f 725/725 270/270 726/726
f 373/373 726/726 6/6
f 725/725 726/726 373/373
f 162/162 724/724 722/722
f 724/724 270/270 725/725
f 722/722 725/725 157/157
f 724/724 725/725 722/722
f 8/8 409/409 723/723
f 409/409 168/168 727/727
f 723/723 727/727 270/270
f 409/409 727/727 723/723
f 168/168 406/406 729/729
f 406/406 12/12 728/728
f 729/729 728/728 271/271
f 406/406 728/728 729/729
f 270/270 730/730 726/726
f 730/730 271/271 731/731
f 726/726 731/731 6/6
f 730/730 731/731 726/726
f 168/168 729/729 727/727
f 729/729 271/271 730/730
f 727/727 730/730 270/270
f 729/729 730/730 727/727
f 6/6 732/732 379/379
f 732/732 272/272 733/733
f 379/379 733/733 160/160
f 732/732 733/733 379/379
f 272/272 734/734 735/735
f 734/734 11/11 413/413
f 735/735 413/413 171/171
f 734/734 413/413 735/735
f 160/160 736/736 381/381
f 736/736 171/171 417/417
f 381/381 417/417 5/5
f 736/736 417/417 381/381
f 272/272 735/735 733/733
f 735/735 171/171 736/736
f 733/733 736/736 160/160
f 735/735 736/736 733/733
f 6/6 731/731 732/732
f 731/731 271/271 737/737
f 732/732 737/737 272/272
f 731/731 737/737 732/732
f 271/271 728/728 739/739
f 728/728 12/12 738/738
f 739/739 738/738 273/273
f 728/728 738/738 739/739
f 272/272 740/740 734/734
f 740/740 273/273 741/741
f 734/734 741/741 11/11
f 740/740 741/741 734/734
f 271/271 739/739 737/737
f 739/739 273/273 740/740
f 737/737 740/740 272/272
f 739/739 740/740 737/737
f 17/17 742/742 744/744
f 742/742 274/274 743/743
f 744/744 743/743 275/275
f 742/742 743/743 744/744
f 274/274 745/745 746/746
f 745/745 20/20 429/429
f 746/746 429/429 177/177
f 745/745 429/429 746/746
f 275/275 747/747 748/748
f 747/747 177/177 435/435
f 748/748 435/435 13/13
f 747/747 435/435 748/748
f 274/274 746/746 743/743
f 746/746 177/177 747/747
f 743/743 747/747 275/275
f 746/746 747/747 743/743
f 16/16 749/749 751/751
f 749/749 276/276 750/750
f 751/751 750/750 277/277
f 749/749 750/750 751/751
f 276/276 752/752 753/753
f 752/752 17/17 744/744
f 753/753 744/744 275/275
f 752/752 744/744 753/753
f 277/277 754/754 755/755
f 754/754 275/275 748/748
f 755/755 748/748 13/13
f 754/754 748/748 755/755
f 276/276 753/753 750/750
f 753/753 275/275 754/754
f 750/750 754/754 277/277
f 753/753 754/754 750/750
f 16/16 441/441 749/749
f 441/441 178/178 756/756
f 749/749 756/756 276/276
f 441/441 756/756 749/749
f 178/178 438/438 758/758
f 438/438 18/18 757/757
f 758/758 757/757 278/278
f 438/438 757/757 758/758
f 276/276 759/759 752/752
f 759/759 278/278 760/760
f 752/752 760/760 17/17
f 759/759 760/760 752/752
f 178/178 758/758 756/756
f 758/758 278/278 759/759
f 756/756 759/759 276/276
f 758/758 759/759 756/756
f 17/17 761/761 742/742
f 761/761 279/279 762/762
f 742/742 762/762 274/274
f 761/761 762/762 742/742
f 279/279 763/763 764/764
f 763/763 21/21 445/445
f 764/764 445/445 182/182
f 763/763 445/445 764/764
f 274/274 765/765 745/745
f 765/765 182/182 451/451
f 745/745 451/451 20/20
f 765/765 451/451 745/745
f 279/279 764/764 762/762
f 764/764 182/182 765/765
f 762/762 765/765 274/274
f 764/764 765/765 762/762
f 18/18 766/766 757/757
f 766/766 280/280 767/767
f 757/757 767/767 278/278
f 766/766 767/767 757/757
f 280/280 768/768 770/770
f 768/768 22/22 769/769
f 770/770 769/769 281/281
f 768/768 769/769 770/770
f 278/278 771/771 760/760
f 771/771 281/281 772/772
f 760/760 772/772 17/17
f 771/771 772/772 760/760
f 280/280 770/770 767/767
f 770/770 281/281 771/771
f 767/767 771/771 278/278
f 770/770 771/771 767/767
f 19/19 773/773 418/418
f 773/773 282/282 774/774
f 418/418 774/774 172/172
f 773/773 774/774 418/418
f 282/282 775/775 777/777
f 775/775 23/23 776/776
f 777/777 776/776 283/283
f 775/775 776/776 777/777
f 172/172 778/778 421/421
f 778/778 283/283 779/779
f 421/421 779/779 18/18
f 778/778 779/779 421/421
f 282/282 777/777 774/774
f 777/777 283/283 778/778
f 774/774 778/778 172/172
f 777/777 778/778 774/774
f 20/20 450/450 781/781
f 450/450 181/181 780/780
f 781/781 780/780 285/285
f 450/450 780/780 781/781
f 181/181 447/447 783/783
f 447/447 25/25 782/782
f 783/783 782/782 284/284
f 447/447 782/782 783/783
f 285/285 784/784 786/786
f 784/784 284/284 785/785
f 786/786 785/785 24/24
f 784/784 785/785 786/786
f 181/181 783/783 780/780
f 783/783 284/284 784/784
f 780/780 784/784 285/285
f 783/783 784/784 780/780
f 23/23 787/787 776/776
f 787/787 286/286 788/788
f 776/776 788/788 283/283
f 787/787 788/788 776/776
f 286/286 789/789 790/790
f 789/789 22/22 768/768
f 790/790 768/768 280/280
f 789/789 768/768 790/790
f 283/283 791/791 779/779
f 791/791 280/280 766/766
f 779/779 766/766 18/18
f 791/791 766/766 779/779
f 286/286 790/790 788/788
f 790/790 280/280 791/791
f 788/788 791/791 283/283
f 790/790 791/791 788/788
f 22/22 475/475 769/769
f 475/475 189/189 792/792
f 769/769 792/792 281/281
f 475/475 792/792 769/769
f 189/189 472/472 793/793
f 472/472 21/21 763/763
f 793/793 763/763 279/279
f 472/472 763/763 793/793
f 281/281 794/794 772/772
f 794/794 279/279 761/761
f 772/772 761/761 17/17
f 794/794 761/761 772/772
f 189/189 793/793 792/792
f 793/793 279/279 794/794
f 792/792 794/794 281/281
f 793/793 794/794 792/792
f 23/23 795/795 787/787
f 795/795 287/287 796/796
f 787/787 796/796 286/286
f 795/795 796/796 787/787
f 287/287 797/797 798/798
f 797/797 26/26 454/454
f 798/798 454/454 185/185
f 797/797 454/454 798/798
f 286/286 799/799 789/789
f 799/799 185/185 460/460
f 789/789 460/460 22/22
f 799/799 460/460 789/789
f 287/287 798/798 796/796
f 798/798 185/185 799/799
f 796/796 799/799 286/286
f 798/798 799/799 796/796
f 28/28 800/800 456/456
f 800/800 288/288 801/801
f 456/456 801/801 184/184
f 800/800 801/801 456/456
f 288/288 802/802 803/803
f 802/802 30/30 484/484
f 803/803 484/484 193/193
f 802/802 484/484 803/803
f 184/184 804/804 459/459
f 804/804 193/193 488/488
f 459/459 488/488 22/22
f 804/804 488/488 459/459
f 288/288 803/803 801/801
f 803/803 193/193 804/804
f 801/801 804/804 184/184
f 803/803 804/804 801/801
f 28/28 805/805 800/800
f 805/805 289/289 806/806
f 800/800 806/806 288/288
f 805/805 806/806 800/800
f 289/289 807/807 809/809
f 807/807 31/31 808/808
f 809/809 808/808 290/290
f 807/807 808/808 809/809
f 288/288 810/810 802/802
f 810/810 290/290 811/811
f 802/802 811/811 30/30
f 810/810 811/811 802/802
f 289/289 809/809 806/806
f 809/809 290/290 810/810
f 806/806 810/810 288/288
f 809/809 810/810 806/806
f 36/36 812/812 814/814
f 812/812 291/291 813/813
f 814/814 813/813 292/292
f 812/812 813/813 814/814
f 291/291 815/815 816/816
f 815/815 39/39 598/598
f 816/816 598/598 228/228
f 815/815 598/598 816/816
f 292/292 817/817 818/818
f 817/817 228/228 595/595
f 818/818 595/595 35/35
f 817/817 595/595 818/818
f 291/291 816/816 813/813
f 816/816 228/228 817/817
f 813/813 817/817 292/292
f 816/816 817/817 813/813
f 34/34 819/819 504/504
f 819/819 293/293 820/820
f 504/504 820/820 198/198
f 819/819 820/820 504/504
f 293/293 821/821 823/823
f 821/821 37/37 822/822
f 823/823 822/822 294/294
f 821/821 822/822 823/823
f 198/198 824/824 498/498
f 824/824 294/294 825/825
f 498/498 825/825 40/40
f 824/824 825/825 498/498
f 293/293 823/823 820/820
f 823/823 294/294 824/824
f 820/820 824/824 198/198
f 823/823 824/824 820/820
f 46/46 826/826 828/828
f 826/826 295/295 827/827
f 828/828 827/827 297/297
f 826/826 827/827 828/828
f 295/295 829/829 831/831
f 829/829 44/44 830/830
f 831/831 830/830 296/296
f 829/829 830/830 831/831
f 297/297 832/832 834/834
f 832/832 296/296 833/833
f 834/834 833/833 41/41
f 832/832 833/833 834/834
f 295/295 831/831 827/827
f 831/831 296/296 832/832
f 827/827 832/832 297/297
f 831/831 832/832 827/827
f 46/46 828/828 836/836
f 828/828 297/297 835/835
f 836/836 835/835 299/299
f 828/828 835/835 836/836
f 297/297 834/834 838/838
f 834/834 41/41 837/837
f 838/838 837/837 298/298
f 834/834 837/837 838/838
f 299/299 839/839 841/841
f 839/839 298/298 840/840
f 841/841 840/840 48/48
f 839/839 840/840 841/841
f 297/297 838/838 835/835
f 838/838 298/298 839/839
f 835/835 839/839 299/299
f 838/838 839/839 835/835
f 40/40 842/842 496/496
f 842/842 300/300 843/843
f 496/496 843/843 196/196
f 842/842 843/843 496/496
f 300/300 844/844 845/845
f 844/844 39/39 815/815
f 845/845 815/815 291/291
f 844/844 815/815 845/845
f 196/196 846/846 499/499
f 846/846 291/291 812/812
f 499/499 812/812 36/36
f 846/846 812/812 499/499
f 300/300 845/845 843/843
f 845/845 291/291 846/846
f 843/843 846/846 196/196
f 845/845 846/846 843/843
f 43/43 847/847 849/849
f 847/847 301/301 848/848
f 849/849 848/848 302/302
f 847/847 848/848 849/849
f 301/301 850/850 851/851
f 850/850 45/45 512/512
f 851/851 512/512 200/200
f 850/850 512/512 851/851
f 302/302 852/852 853/853
f 852/852 200/200 509/509
f 853/853 509/509 42/42
f 852/852 509/509 853/853
f 301/301 851/851 848/848
f 851/851 200/200 852/852
f 848/848 852/852 302/302
f 851/851 852/852 848/848
f 43/43 854/854 847/847
f 854/854 303/303 855/855
f 847/847 855/855 301/301
f 854/854 855/855 847/847
f 303/303 856/856 858/858
f 856/856 44/44 857/857
f 858/858 857/857 304/304
f 856/856 857/857 858/858
f 301/301 859/859 850/850
f 859/859 304/304 860/860
f 850/850 860/860 45/45
f 859/859 860/860 850/850
f 303/303 858/858 855/855
f 858/858 304/304 859/859
f 855/855 859/859 301/301
f 858/858 859/859 855/855
f 44/44 829/829 857/857
f 829/829 295/295 861/861
f 857/857 861/861 304/304
f 829/829 861/861 857/857
f 295/295 826/826 863/863
f 826/826 46/46 862/862
f 863/863 862/862 305/305
f 826/826 862/862 863/863
f 304/304 864/864 860/860
f 864/864 305/305 865/865
f 860/860 865/865 45/45
f 864/864 865/865 860/860
f 295/295 863/863 861/861
f 863/863 305/305 864/864
f 861/861 864/864 304/304
f 863/863 864/864 861/861
f 60/60 866/866 868/868
f 866/866 306/306 867/867
f 868/868 867/867 308/308
f 866/866 867/867 868/868
f 306/306 869/869 871/871
f 869/869 61/61 870/870
f 871/871 870/870 307/307
f 869/869 870/870 871/871
f 308/308 872/872 874/874
f 872/872 307/307 873/873
f 874/874 873/873 65/65
f 872/872 873/873 874/874
f 306/306 871/871 867/867
f 871/871 307/307 872/872
f 867/867 872/872 308/308
f 871/871 872/872 867/867
f 60/60 868/868 548/548
f 868/868 308/308 875/875
f 548/548 875/875 213/213
f 868/868 875/875 548/548
f 308/308 874/874 877/877
f 874/874 65/65 876/876
f 877/877 876/876 309/309
f 874/874 876/876 877/877
f 213/213 878/878 551/551
f 878/878 309/309 879/879
f 551/551 879/879 64/64
f 878/878 879/879 551/551
f 308/308 877/877 875/875
f 877/877 309/309 878/878
f 875/875 878/878 213/213
f 877/877 878/878 875/875
f 51/51 880/880 882/882
f 880/880 310/310 881/881
f 882/882 881/881 312/312
f 880/880 881/881 882/882
f 310/310 883/883 885/885
f 883/883 54/54 884/884
f 885/885 884/884 311/311
f 883/883 884/884 885/885
f 312/312 886/886 888/888
f 886/886 311/311 887/887
f 888/888 887/887 49/49
f 886/886 887/887 888/888
f 310/310 885/885 881/881
f 885/885 311/311 886/886
f 881/881 886/886 312/312
f 885/885 886/886 881/881
f 52/52 529/529 890/890
f 529/529 206/206 889/889
f 890/890 889/889 314/314
f 529/529 889/889 890/890
f 206/206 526/526 892/892
f 526/526 56/56 891/891
f 892/892 891/891 313/313
f 526/526 891/891 892/892
f 314/314 893/893 895/895
f 893/893 313/313 894/894
f 895/895 894/894 51/51
f 893/893 894/894 895/895
f 206/206 892/892 889/889
f 892/892 313/313 893/893
f 889/889 893/893 314/314
f 892/892 893/893 889/889
f 50/50 896/896 522/522
f 896/896 315/315 897/897
f 522/522 897/897 204/204
f 896/896 897/897 522/522
f 315/315 898/898 900/900
f 898/898 53/53 899/899
f 900/900 899/899 316/316
f 898/898 899/899 900/900
f 204/204 901/901 516/516
f 901/901 316/316 902/902
f 516/516 902/902 55/55
f 901/901 902/902 516/516
f 315/315 900/900 897/897
f 900/900 316/316 901/901
f 897/897 901/901 204/204
f 900/900 901/901 897/897
f 51/51 894/894 880/880
f 894/894 313/313 903/903
f 880/880 903/903 310/310
f 894/894 903/903 880/880
f 313/313 891/891 905/905
f 891/891 56/56 904/904
f 905/905 904/904 317/317
f 891/891 904/904 905/905
f 310/310 906/906 883/883
f 906/906 317/317 907/907
f 883/883 907/907 54/54
f 906/906 907/907 883/883
f 313/313 905/905 903/903
f 905/905 317/317 906/906
f 903/903 906/906 310/310
f 905/905 906/906 903/903
f 58/58 546/546 909/909
f 546/546 211/211 908/908
f 909/909 908/908 318/318
f 546/546 908/908 909/909
f 211/211 543/543 910/910
f 543/543 65/65 873/873
f 910/910 873/873 307/307
f 543/543 873/873 910/910
f 318/318 911/911 912/912
f 911/911 307/307 870/870
f 912/912 870/870 61/61
f 911/911 870/870 912/912
f 211/211 910/910 908/908
f 910/910 307/307 911/911
f 908/908 911/911 318/318
f 910/910 911/911 908/908
f 59/59 555/555 530/530
f 555/555 214/214 913/913
f 530/530 913/913 207/207
f 555/555 913/913 530/530
f 214/214 552/552 915/915
f 552/552 64/64 914/914
f 915/915 914/914 319/319
f 552/552 914/914 915/915
f 207/207 916/916 533/533
f 916/916 319/319 917/917
f 533/533 917/917 63/63
f 916/916 917/917 533/533
f 214/214 915/915 913/913
f 915/915 319/319 916/916
f 913/913 916/916 207/207
f 915/915 916/916 913/913
f 149/149 918/918 920/920
f 918/918 320/320 919/919
f 920/920 919/919 322/322
f 918/918 919/919 920/920
f 320/320 921/921 923/923
f 921/921 139/139 922/922
f 923/923 922/922 321/321
f 921/921 922/922 923/923
f 322/322 924/924 926/926
f 924/924 321/321 925/925
f 926/926 925/925 133/133
f 924/924 925/925 926/926
f 320/320 923/923 919/919
f 923/923 321/321 924/924
f 919/919 924/924 322/322
f 923/923 924/924 919/919
f 149/149 920/920 928/928
f 920/920 322/322 927/927
f 928/928 927/927 324/324
f 920/920 927/927 928/928
f 322/322 926/926 930/930
f 926/926 133/133 929/929
f 930/930 929/929 323/323
f 926/926 929/929 930/930
f 324/324 931/931 933/933
f 931/931 323/323 932/932
f 933/933 932/932 143/143
f 931/931 932/932 933/933
f 322/322 930/930 927/927
f 930/930 323/323 931/931
f 927/927 931/931 324/324
f 930/930 931/931 927/927
f 70/70 934/934 936/936
f 934/934 325/325 935/935
f 936/936 935/935 327/327
f 934/934 935/935 936/936
f 325/325 937/937 939/939
f 937/937 66/66 938/938
f 939/939 938/938 326/326
f 937/937 938/938 939/939
f 327/327 940/940 942/942
f 940/940 326/326 941/941
f 942/942 941/941 93/93
f 940/940 941/941 942/942
f 325/325 939/939 935/935
f 939/939 326/326 940/940
f 935/935 940/940 327/327
f 939/939 940/940 935/935
f 114/114 943/943 945/945
f 943/943 328/328 944/944
f 945/945 944/944 330/330
f 943/943 944/944 945/945
f 328/328 946/946 948/948
f 946/946 83/83 947/947
f 948/948 947/947 329/329
f 946/946 947/947 948/948
f 330/330 949/949 951/951
f 949/949 329/329 950/950
f 951/951 950/950 88/88
f 949/949 950/950 951/951
f 328/328 948/948 944/944
f 948/948 329/329 949/949
f 944/944 949/949 330/330
f 948/948 949/949 944/944
f 77/77 952/952 954/954
f 952/952 331/331 953/953
f 954/954 953/953 333/333
f 952/952 953/953 954/954
f 331/331 955/955 957/957
f 955/955 71/71 956/956
f 957/957 956/956 332/332
f 955/955 956/956 957/957
f 333/333 958/958 960/960
f 958/958 332/332 959/959
f 960/960 959/959 94/94
f 958/958 959/959 960/960
f 331/331 957/957 953/953
f 957/957 332/332 958/958
f 953/953 958/958 333/333
f 957/957 958/958 953/953
f 115/115 961/961 963/963
f 961/961 334/334 962/962
f 963/963 962/962 336/336
f 961/961 962/962 963/963
f 334/334 964/964 966/966
f 964/964 89/89 965/965
f 966/966 965/965 335/335
f 964/964 965/965 966/966
f 336/336 967/967 969/969
f 967/967 335/335 968/968
f 969/969 968/968 99/99
f 967/967 968/968 969/969
f 334/334 966/966 962/962
f 966/966 335/335 967/967
f 962/962 967/967 336/336
f 966/966 967/967 962/962
f 91/91 970/970 972/972
f 970/970 337/337 971/971
f 972/972 971/971 339/339
f 970/970 971/971 972/972
f 337/337 973/973 975/975
f 973/973 104/104 974/974
f 975/975 974/974 338/338
f 973/973 974/974 975/975
f 339/339 976/976 978/978
f 976/976 338/338 977/977
f 978/978 977/977 101/101
f 976/976 977/977 978/978
f 337/337 975/975 971/971
f 975/975 338/338 976/976
f 971/971 976/976 339/339
f 975/975 976/976 971/971
f 103/103 979/979 981/981
f 979/979 340/340 980/980
f 981/981 980/980 342/342
f 979/979 980/980 981/981
f 340/340 982/982 984/984
f 982/982 97/97 983/983
f 984/984 983/983 341/341
f 982/982 983/983 984/984
f 342/342 985/985 987/987
f 985/985 341/341 986/986
f 987/987 986/986 110/110
f 985/985 986/986 987/987
f 340/340 984/984 980/980
f 984/984 341/341 985/985
f 980/980 985/985 342/342
f 984/984 985/985 980/980
f 100/100 988/988 990/990
f 988/988 343/343 989/989
f 990/990 989/989 345/345
f 988/988 989/989 990/990
f 343/343 991/991 993/993
f 991/991 102/102 992/992
f 993/993 992/992 344/344
f 991/991 992/992 993/993
f 345/345 994/994 996/996
f 994/994 344/344 995/995
f 996/996 995/995 116/116
f 994/994 995/995 996/996
f 343/343 993/993 989/989
f 993/993 344/344 994/994
f 989/989 994/994 345/345
f 993/993 994/994 989/989
f 119/119 997/997 999/999
f 997/997 346/346 998/998
f 999/999 998/998 348/348
f 997/997 998/998 999/999
f 346/346 1000/1000 1002/1002
f 1000/1000 106/106 1001/1001
f 1002/1002 1001/1001 347/347
f 1000/1000 1001/1001 1002/1002
f 348/348 1003/1003 1005/1005
f 1003/1003 347/347 1004/1004
f 1005/1005 1004/1004 131/131
f 1003/1003 1004/1004 1005/1005
f 346/346 1002/1002 998/998
f 1002/1002 347/347 1003/1003
f 998/998 1003/1003 348/348
f 1002/1002 1003/1003 998/998
f 123/123 1006/1006 1008/1008
f 1006/1006 349/349 1007/1007
f 1008/1008 1007/1007 351/351
f 1006/1006 1007/1007 1008/1008
f 349/349 1009/1009 1011/1011
f 1009/1009 128/128 1010/1010
f 1011/1011 1010/1010 350/350
f 1009/1009 1010/1010 1011/1011
f 351/351 1012/1012 1014/1014
f 1012/1012 350/350 1013/1013
f 1014/1014 1013/1013 134/134
f 1012/1012 1013/1013 1014/1014
f 349/349 1011/1011 1007/1007
f 1011/1011 350/350 1012/1012
f 1007/1007 1012/1012 351/351
f 1011/1011 1012/1012 1007/1007
f 124/124 1015/1015 1017/1017
f 1015/1015 352/352 1016/1016
f 1017/1017 1016/1016 354/354
f 1015/1015 1016/1016 1017/1017
f 352/352 1018/1018 1020/1020
f 1018/1018 68/68 1019/1019
f 1020/1020 1019/1019 353/353
f 1018/1018 1019/1019 1020/1020
f 354/354 1021/1021 1023/1023
f 1021/1021 353/353 1022/1022
f 1023/1023 1022/1022 73/73
f 1021/1021 1022/1022 1023/1023
f 352/352 1020/1020 1016/1016
f 1020/1020 353/353 1021/1021
f 1016/1016 1021/1021 354/354
f 1020/1020 1021/1021 1016/1016
f 141/141 1024/1024 1026/1026
f 1024/1024 355/355 1025/1025
f 1026/1026 1025/1025 357/357
f 1024/1024 1025/1025 1026/1026
f 355/355 1027/1027 1029/1029
f 1027/1027 126/126 1028/1028
f 1029/1029 1028/1028 356/356
f 1027/1027 1028/1028 1029/1029
f 357/357 1030/1030 1032/1032
f 1030/1030 356/356 1031/1031
f 1032/1032 1031/1031 75/75
f 1030/1030 1031/1031 1032/1032
f 355/355 1029/1029 1025/1025
f 1029/1029 356/356 1030/1030
f 1025/1025 1030/1030 357/357
f 1029/1029 1030/1030 1025/1025
f 142/142 1033/1033 1035/1035
f 1033/1033 358/358 1034/1034
f 1035/1035 1034/1034 360/360
f 1033/1033 1034/1034 1035/1035
f 358/358 1036/1036 1038/1038
f 1036/1036 153/153 1037/1037
f 1038/1038 1037/1037 359/359
f 1036/1036 1037/1037 1038/1038
f 360/360 1039/1039 1041/1041
f 1039/1039 359/359 1040/1040
f 1041/1041 1040/1040 148/148
f 1039/1039 1040/1040 1041/1041
f 358/358 1038/1038 1034/1034
f 1038/1038 359/359 1039/1039
f 1034/1034 1039/1039 360/360
f 1038/1038 1039/1039 1034/1034
